<svg width="733" height="305" viewBox="0 0 733 305" fill="none" xmlns="http://www.w3.org/2000/svg">
<rect width="733" height="305" rx="20" fill="#BADEFF"/>
<path d="M295.179 82.8743C295.712 81.7076 296.146 80.4243 296.479 79.0243C296.812 77.6243 297.062 76.291 297.229 75.0243C297.429 73.5576 297.579 72.0743 297.679 70.5743H273.429V64.6743H304.479V71.0243C304.412 72.091 304.262 73.2243 304.029 74.4243C303.829 75.6243 303.579 76.7743 303.279 77.8743C303.012 78.9743 302.746 79.9743 302.479 80.8743C302.212 81.7743 302.012 82.441 301.879 82.8743H308.579V88.7743H269.579V82.8743H285.429V77.3743H292.029V82.8743H295.179ZM298.579 92.2243C300.346 92.2243 301.762 92.7076 302.829 93.6743C303.929 94.641 304.479 95.941 304.479 97.5743V101.724C304.479 103.158 303.946 104.341 302.879 105.274C301.846 106.241 300.546 106.724 298.979 106.724H279.029C278.362 106.691 277.696 106.541 277.029 106.274C276.362 106.041 275.762 105.708 275.229 105.274C274.696 104.874 274.262 104.374 273.929 103.774C273.596 103.174 273.429 102.508 273.429 101.774V97.4243C273.429 96.4576 273.629 95.641 274.029 94.9743C274.462 94.3076 274.996 93.7743 275.629 93.3743C276.296 92.9743 277.012 92.691 277.779 92.5243C278.546 92.3243 279.279 92.2243 279.979 92.2243H298.579ZM282.629 97.6243C281.662 97.6243 280.962 97.7743 280.529 98.0743C280.096 98.3743 279.879 98.7076 279.879 99.0743V100.424C279.879 100.791 279.962 101.058 280.129 101.224C280.296 101.424 280.512 101.558 280.779 101.624C281.046 101.724 281.329 101.774 281.629 101.774C281.962 101.808 282.296 101.824 282.629 101.824H296.379C297.012 101.824 297.529 101.708 297.929 101.474C298.329 101.241 298.529 100.891 298.529 100.424V99.2243C298.529 98.7576 298.329 98.3743 297.929 98.0743C297.529 97.7743 296.996 97.6243 296.329 97.6243H282.629ZM339.171 74.2243H331.171C331.138 74.7243 331.121 75.441 331.121 76.3743C331.121 77.2743 331.171 78.291 331.271 79.4243C331.405 80.5576 331.621 81.741 331.921 82.9743C332.255 84.1743 332.721 85.341 333.321 86.4743C333.921 87.5743 334.688 88.5743 335.621 89.4743C336.555 90.3743 337.705 91.0576 339.071 91.5243V97.3243C337.405 96.9243 335.838 96.3243 334.371 95.5243C333.738 95.191 333.105 94.791 332.471 94.3243C331.838 93.8576 331.221 93.3243 330.621 92.7243C330.055 92.1243 329.521 91.4576 329.021 90.7243C328.555 89.9576 328.171 89.1076 327.871 88.1743C327.238 90.1743 326.305 91.7743 325.071 92.9743C323.838 94.141 322.588 95.0576 321.321 95.7243C319.855 96.491 318.288 97.0243 316.621 97.3243V91.5243C317.988 91.0576 319.138 90.3743 320.071 89.4743C321.005 88.5743 321.755 87.5743 322.321 86.4743C322.921 85.341 323.355 84.1743 323.621 82.9743C323.921 81.741 324.121 80.5576 324.221 79.4243C324.355 78.291 324.405 77.2743 324.371 76.3743C324.371 75.441 324.355 74.7243 324.321 74.2243H316.571V68.6243H339.171V74.2243ZM350.271 106.774V64.7243H343.571V106.774H350.271ZM397.49 78.7243V85.2243H392.24V106.774H385.84V65.2743H392.24V78.7243H397.49ZM377.59 87.1243C378.49 88.0576 379.557 88.941 380.79 89.7743V96.0743C379.523 95.641 378.223 95.0243 376.89 94.2243C375.757 93.5576 374.523 92.6743 373.19 91.5743C371.89 90.4743 370.673 89.0743 369.54 87.3743C368.407 89.0743 367.19 90.4743 365.89 91.5743C364.59 92.6743 363.373 93.5576 362.24 94.2243C360.907 95.0243 359.59 95.641 358.29 96.0743V89.7743C358.79 89.4743 359.257 89.1576 359.69 88.8243C360.057 88.5576 360.423 88.2743 360.79 87.9743C361.19 87.641 361.523 87.341 361.79 87.0743C362.757 86.041 363.557 85.0076 364.19 83.9743C364.823 82.941 365.307 81.8743 365.64 80.7743C366.007 79.641 366.257 78.4576 366.39 77.2243C366.523 75.9576 366.59 74.6076 366.59 73.1743V68.4243H373.09V73.1743C373.09 76.0743 373.407 78.6743 374.04 80.9743C374.673 83.241 375.857 85.291 377.59 87.1243ZM420.378 67.5743H428.428V72.1743H424.828C425.394 72.7743 425.844 73.4743 426.178 74.2743C426.511 75.0743 426.678 75.9076 426.678 76.7743V81.9743C426.678 83.041 426.494 84.0076 426.128 84.8743C425.761 85.741 425.278 86.5076 424.678 87.1743C424.078 87.8076 423.378 88.3076 422.578 88.6743C421.778 89.0076 420.928 89.1743 420.028 89.1743H413.828C412.928 89.1743 412.078 89.0076 411.278 88.6743C410.478 88.3076 409.761 87.8243 409.128 87.2243C408.528 86.6243 408.044 85.9243 407.678 85.1243C407.311 84.291 407.128 83.4076 407.128 82.4743V76.7743C407.128 75.9076 407.294 75.0743 407.628 74.2743C407.961 73.4743 408.411 72.7743 408.978 72.1743H405.478V67.5743H413.528V64.7243H420.378V67.5743ZM415.478 92.5243H432.728C433.628 92.5243 434.461 92.641 435.228 92.8743C435.994 93.0743 436.661 93.4076 437.228 93.8743C437.828 94.3076 438.294 94.8743 438.628 95.5743C438.961 96.241 439.128 97.0243 439.128 97.9243V101.524C439.128 102.224 438.978 102.891 438.678 103.524C438.411 104.158 438.028 104.724 437.528 105.224C437.061 105.724 436.494 106.108 435.828 106.374C435.161 106.674 434.444 106.824 433.678 106.824H413.978C412.378 106.824 411.061 106.324 410.028 105.324C408.994 104.324 408.478 102.974 408.478 101.274V97.7243C408.478 95.8243 409.111 94.491 410.378 93.7243C411.644 92.9243 413.344 92.5243 415.478 92.5243ZM444.428 73.2243V79.1243H438.778V87.8743H432.828V64.6743H438.778V73.2243H444.428ZM433.228 100.474V99.4243C433.228 99.0243 433.044 98.6743 432.678 98.3743C432.344 98.041 431.944 97.8743 431.478 97.8743H417.028C416.061 97.8743 415.461 98.041 415.228 98.3743C415.028 98.7076 414.928 99.041 414.928 99.3743V100.624C414.928 101.124 415.111 101.474 415.478 101.674C415.844 101.874 416.361 101.974 417.028 101.974H431.528C432.661 101.974 433.228 101.474 433.228 100.474ZM420.878 81.2743V78.0743C420.878 77.2743 420.611 76.6076 420.078 76.0743C419.544 75.541 418.861 75.2743 418.028 75.2743H415.928C415.128 75.2743 414.411 75.541 413.778 76.0743C413.178 76.6076 412.878 77.2743 412.878 78.0743V81.2743C412.878 82.1076 413.094 82.791 413.528 83.3243C413.994 83.8576 414.628 84.1243 415.428 84.1243H418.228C419.061 84.1243 419.711 83.8576 420.178 83.3243C420.644 82.791 420.878 82.1076 420.878 81.2743Z" fill="white"/>
<path d="M295.179 82.8743V83.8743H295.821L296.089 83.2901L295.179 82.8743ZM297.229 75.0243L296.238 74.8892L296.238 74.8939L297.229 75.0243ZM297.679 70.5743L298.677 70.6408L298.748 69.5743H297.679V70.5743ZM273.429 70.5743H272.429V71.5743H273.429V70.5743ZM273.429 64.6743V63.6743H272.429V64.6743H273.429ZM304.479 64.6743H305.479V63.6743H304.479V64.6743ZM304.479 71.0243L305.477 71.0867L305.479 71.0555V71.0243H304.479ZM304.029 74.4243L303.047 74.2334L303.045 74.2466L303.043 74.2599L304.029 74.4243ZM303.279 77.8743L302.314 77.6112L302.311 77.6249L302.307 77.6387L303.279 77.8743ZM301.879 82.8743L300.923 82.5802L300.525 83.8743H301.879V82.8743ZM308.579 82.8743H309.579V81.8743H308.579V82.8743ZM308.579 88.7743V89.7743H309.579V88.7743H308.579ZM269.579 88.7743H268.579V89.7743H269.579V88.7743ZM269.579 82.8743V81.8743H268.579V82.8743H269.579ZM285.429 82.8743V83.8743H286.429V82.8743H285.429ZM285.429 77.3743V76.3743H284.429V77.3743H285.429ZM292.029 77.3743H293.029V76.3743H292.029V77.3743ZM292.029 82.8743H291.029V83.8743H292.029V82.8743ZM302.829 93.6743L302.158 94.4153L302.163 94.4204L302.169 94.4255L302.829 93.6743ZM302.879 105.274L302.221 104.522L302.208 104.533L302.196 104.544L302.879 105.274ZM279.029 106.724L278.979 107.723L279.004 107.724H279.029V106.724ZM277.029 106.274L277.4 105.346L277.38 105.338L277.359 105.33L277.029 106.274ZM275.229 105.274L275.86 104.498L275.845 104.486L275.829 104.474L275.229 105.274ZM273.929 103.774L273.055 104.26L273.929 103.774ZM274.029 94.9743L273.191 94.4293L273.181 94.4444L273.172 94.4598L274.029 94.9743ZM275.629 93.3743L275.115 92.5168L275.105 92.5227L275.095 92.5288L275.629 93.3743ZM277.779 92.5243L277.992 93.5015L278.012 93.4971L278.032 93.4919L277.779 92.5243ZM280.529 98.0743L279.96 97.2521L279.96 97.2521L280.529 98.0743ZM280.129 101.224L280.897 100.584L280.868 100.549L280.836 100.517L280.129 101.224ZM280.779 101.624L281.13 100.688L281.077 100.668L281.022 100.654L280.779 101.624ZM281.629 101.774L281.729 100.779L281.679 100.774H281.629V101.774ZM297.929 101.474L297.425 100.611L297.425 100.611L297.929 101.474ZM297.929 98.0743L297.329 98.8743L297.329 98.8743L297.929 98.0743ZM296.089 83.2901C296.652 82.0576 297.105 80.7117 297.452 79.2559L295.506 78.7927C295.186 80.1369 294.773 81.3577 294.27 82.4586L296.089 83.2901ZM297.452 79.2559C297.792 77.8267 298.049 76.4594 298.221 75.1548L296.238 74.8939C296.076 76.1226 295.833 77.422 295.506 78.7927L297.452 79.2559ZM298.22 75.1594C298.423 73.6696 298.575 72.1634 298.677 70.6408L296.681 70.5078C296.583 71.9852 296.435 73.4457 296.238 74.8892L298.22 75.1594ZM297.679 69.5743H273.429V71.5743H297.679V69.5743ZM274.429 70.5743V64.6743H272.429V70.5743H274.429ZM273.429 65.6743H304.479V63.6743H273.429V65.6743ZM303.479 64.6743V71.0243H305.479V64.6743H303.479ZM303.481 70.9619C303.417 71.9798 303.274 73.07 303.047 74.2334L305.011 74.6152C305.251 73.3787 305.407 72.2021 305.477 71.0867L303.481 70.9619ZM303.043 74.2599C302.848 75.4289 302.605 76.5458 302.314 77.6112L304.244 78.1374C304.553 77.0028 304.81 75.8198 305.015 74.5887L303.043 74.2599ZM302.307 77.6387C302.044 78.7256 301.781 79.7091 301.52 80.5902L303.438 81.1584C303.71 80.2395 303.981 79.223 304.251 78.1099L302.307 77.6387ZM301.52 80.5902C301.254 81.4896 301.055 82.1521 300.923 82.5802L302.835 83.1684C302.97 82.7298 303.171 82.059 303.438 81.1584L301.52 80.5902ZM301.879 83.8743H308.579V81.8743H301.879V83.8743ZM307.579 82.8743V88.7743H309.579V82.8743H307.579ZM308.579 87.7743H269.579V89.7743H308.579V87.7743ZM270.579 88.7743V82.8743H268.579V88.7743H270.579ZM269.579 83.8743H285.429V81.8743H269.579V83.8743ZM286.429 82.8743V77.3743H284.429V82.8743H286.429ZM285.429 78.3743H292.029V76.3743H285.429V78.3743ZM291.029 77.3743V82.8743H293.029V77.3743H291.029ZM292.029 83.8743H295.179V81.8743H292.029V83.8743ZM298.579 93.2243C300.157 93.2243 301.314 93.6511 302.158 94.4153L303.501 92.9333C302.211 91.7642 300.535 91.2243 298.579 91.2243V93.2243ZM302.169 94.4255C303.027 95.1791 303.479 96.1915 303.479 97.5743H305.479C305.479 95.6905 304.832 94.1029 303.489 92.9232L302.169 94.4255ZM303.479 97.5743V101.724H305.479V97.5743H303.479ZM303.479 101.724C303.479 102.873 303.067 103.781 302.221 104.522L303.538 106.027C304.824 104.901 305.479 103.442 305.479 101.724H303.479ZM302.196 104.544C301.368 105.318 300.322 105.724 298.979 105.724V107.724C300.77 107.724 302.323 107.164 303.562 106.005L302.196 104.544ZM298.979 105.724H279.029V107.724H298.979V105.724ZM279.079 105.726C278.531 105.698 277.972 105.575 277.4 105.346L276.658 107.203C277.419 107.507 278.194 107.684 278.979 107.723L279.079 105.726ZM277.359 105.33C276.799 105.134 276.301 104.857 275.86 104.498L274.599 106.05C275.224 106.559 275.926 106.948 276.699 107.218L277.359 105.33ZM275.829 104.474C275.412 104.161 275.07 103.77 274.803 103.289L273.055 104.26C273.454 104.979 273.98 105.587 274.629 106.074L275.829 104.474ZM274.803 103.289C274.558 102.847 274.429 102.35 274.429 101.774H272.429C272.429 102.666 272.633 103.501 273.055 104.26L274.803 103.289ZM274.429 101.774V97.4243H272.429V101.774H274.429ZM274.429 97.4243C274.429 96.5951 274.6 95.9664 274.887 95.4888L273.172 94.4598C272.658 95.3156 272.429 96.3202 272.429 97.4243H274.429ZM274.868 95.5193C275.227 94.966 275.659 94.5381 276.163 94.2198L275.095 92.5288C274.332 93.0105 273.698 93.6493 273.191 94.4293L274.868 95.5193ZM276.144 94.2318C276.716 93.8884 277.33 93.6452 277.992 93.5015L277.567 91.5471C276.694 91.7368 275.876 92.0602 275.115 92.5168L276.144 94.2318ZM278.032 93.4919C278.726 93.3107 279.375 93.2243 279.979 93.2243V91.2243C279.184 91.2243 278.365 91.338 277.527 91.5567L278.032 93.4919ZM279.979 93.2243H298.579V91.2243H279.979V93.2243ZM282.629 96.6243C281.606 96.6243 280.65 96.7742 279.96 97.2521L281.098 98.8965C281.275 98.7744 281.719 98.6243 282.629 98.6243V96.6243ZM279.96 97.2521C279.383 97.6515 278.879 98.2512 278.879 99.0743H280.879C280.879 99.0828 280.878 99.0929 280.875 99.1012C280.873 99.109 280.872 99.1069 280.88 99.0943C280.899 99.0659 280.956 98.9953 281.098 98.8965L279.96 97.2521ZM278.879 99.0743V100.424H280.879V99.0743H278.879ZM278.879 100.424C278.879 100.913 278.986 101.496 279.422 101.931L280.836 100.517C280.887 100.568 280.898 100.609 280.896 100.601C280.892 100.589 280.879 100.536 280.879 100.424H278.879ZM279.361 101.865C279.671 102.237 280.076 102.479 280.537 102.594L281.022 100.654C280.949 100.636 280.92 100.612 280.897 100.584L279.361 101.865ZM280.428 102.561C280.813 102.705 281.216 102.774 281.629 102.774V100.774C281.443 100.774 281.279 100.744 281.13 100.688L280.428 102.561ZM281.53 102.769C281.896 102.806 282.262 102.824 282.629 102.824V100.824C282.329 100.824 282.029 100.809 281.729 100.779L281.53 102.769ZM282.629 102.824H296.379V100.824H282.629V102.824ZM296.379 102.824C297.127 102.824 297.834 102.688 298.433 102.338L297.425 100.611C297.224 100.728 296.898 100.824 296.379 100.824V102.824ZM298.433 102.338C299.143 101.924 299.529 101.243 299.529 100.424H297.529C297.529 100.511 297.512 100.539 297.511 100.541C297.51 100.542 297.496 100.569 297.425 100.611L298.433 102.338ZM299.529 100.424V99.2243H297.529V100.424H299.529ZM299.529 99.2243C299.529 98.4176 299.16 97.7475 298.529 97.2743L297.329 98.8743C297.498 99.0011 297.529 99.0977 297.529 99.2243H299.529ZM298.529 97.2743C297.906 96.8072 297.141 96.6243 296.329 96.6243V98.6243C296.851 98.6243 297.152 98.7414 297.329 98.8743L298.529 97.2743ZM296.329 96.6243H282.629V98.6243H296.329V96.6243ZM339.171 74.2243V75.2243H340.171V74.2243H339.171ZM331.171 74.2243V73.2243H330.236L330.174 74.1578L331.171 74.2243ZM331.271 79.4243L330.275 79.5122L330.276 79.5267L330.278 79.5412L331.271 79.4243ZM331.921 82.9743L330.95 83.2107L330.953 83.2264L330.958 83.242L331.921 82.9743ZM333.321 86.4743L332.437 86.9422L332.443 86.9532L333.321 86.4743ZM335.621 89.4743L336.315 88.7545L335.621 89.4743ZM339.071 91.5243H340.071V90.8091L339.394 90.578L339.071 91.5243ZM339.071 97.3243L338.838 98.2967L340.071 98.5927V97.3243H339.071ZM334.371 95.5243L334.85 94.6464L334.844 94.6429L334.837 94.6394L334.371 95.5243ZM332.471 94.3243L333.064 93.5193L333.064 93.5193L332.471 94.3243ZM330.621 92.7243L329.894 93.4109L329.904 93.4213L329.914 93.4314L330.621 92.7243ZM329.021 90.7243L328.167 91.2443L328.181 91.2663L328.195 91.2877L329.021 90.7243ZM327.871 88.1743L328.823 87.8683L327.864 84.8843L326.918 87.8724L327.871 88.1743ZM325.071 92.9743L325.759 93.7009L325.769 93.691L325.071 92.9743ZM321.321 95.7243L321.785 96.6105L321.787 96.6092L321.321 95.7243ZM316.621 97.3243H315.621V98.5204L316.798 98.3085L316.621 97.3243ZM316.621 91.5243L316.298 90.578L315.621 90.8091V91.5243H316.621ZM320.071 89.4743L319.377 88.7545L319.377 88.7545L320.071 89.4743ZM322.321 86.4743L321.437 86.0064L321.432 86.0164L322.321 86.4743ZM323.621 82.9743L322.65 82.738L322.647 82.7477L322.645 82.7574L323.621 82.9743ZM324.221 79.4243L323.228 79.3075L323.226 79.3219L323.225 79.3364L324.221 79.4243ZM324.371 76.3743H323.371V76.3928L323.372 76.4113L324.371 76.3743ZM324.321 74.2243L325.319 74.1578L325.257 73.2243H324.321V74.2243ZM316.571 74.2243H315.571V75.2243H316.571V74.2243ZM316.571 68.6243V67.6243H315.571V68.6243H316.571ZM339.171 68.6243H340.171V67.6243H339.171V68.6243ZM350.271 106.774V107.774H351.271V106.774H350.271ZM350.271 64.7243H351.271V63.7243H350.271V64.7243ZM343.571 64.7243V63.7243H342.571V64.7243H343.571ZM343.571 106.774H342.571V107.774H343.571V106.774ZM339.171 73.2243H331.171V75.2243H339.171V73.2243ZM330.174 74.1578C330.138 74.6913 330.121 75.4342 330.121 76.3743H332.121C332.121 75.4478 332.138 74.7573 332.169 74.2908L330.174 74.1578ZM330.121 76.3743C330.121 77.3101 330.173 78.3569 330.275 79.5122L332.267 79.3364C332.169 78.2251 332.121 77.2385 332.121 76.3743H330.121ZM330.278 79.5412C330.417 80.7189 330.641 81.9423 330.95 83.2107L332.893 82.738C332.601 81.5397 332.393 80.3964 332.264 79.3075L330.278 79.5412ZM330.958 83.242C331.311 84.5134 331.805 85.7471 332.438 86.9422L334.205 86.0064C333.638 84.9349 333.198 83.8352 332.885 82.7067L330.958 83.242ZM332.443 86.9532C333.094 88.1454 333.923 89.2261 334.927 90.1942L336.315 88.7545C335.453 87.9225 334.749 87.0032 334.199 85.9955L332.443 86.9532ZM334.927 90.1942C335.978 91.207 337.259 91.962 338.748 92.4707L339.394 90.578C338.151 90.1533 337.132 89.5416 336.315 88.7545L334.927 90.1942ZM338.071 91.5243V97.3243H340.071V91.5243H338.071ZM339.305 96.3519C337.721 95.9719 336.238 95.4032 334.85 94.6464L333.892 96.4022C335.438 97.2455 337.088 97.8767 338.838 98.2967L339.305 96.3519ZM334.837 94.6394C334.252 94.3316 333.661 93.959 333.064 93.5193L331.878 95.1294C332.548 95.6229 333.224 96.0504 333.906 96.4092L334.837 94.6394ZM333.064 93.5193C332.475 93.0846 331.896 92.5845 331.328 92.0172L329.914 93.4314C330.547 94.0641 331.201 94.6307 331.878 95.1294L333.064 93.5193ZM331.348 92.0377C330.821 91.4789 330.32 90.8539 329.848 90.161L328.195 91.2877C328.723 92.0614 329.289 92.7698 329.894 93.4109L331.348 92.0377ZM329.875 90.2044C329.453 89.5108 329.101 88.7336 328.823 87.8683L326.919 88.4803C327.241 89.4817 327.656 90.4045 328.167 91.2443L329.875 90.2044ZM326.918 87.8724C326.324 89.7493 325.466 91.1952 324.374 92.2576L325.769 93.691C327.143 92.3534 328.152 90.5994 328.825 88.4762L326.918 87.8724ZM324.384 92.2478C323.205 93.3631 322.028 94.2222 320.856 94.8394L321.787 96.6092C323.148 95.8931 324.471 94.9188 325.758 93.7008L324.384 92.2478ZM320.858 94.8381C319.483 95.5567 318.013 96.0577 316.444 96.3401L316.798 98.3085C318.563 97.991 320.226 97.4253 321.785 96.6105L320.858 94.8381ZM317.621 97.3243V91.5243H315.621V97.3243H317.621ZM316.944 92.4707C318.434 91.962 319.715 91.207 320.765 90.1942L319.377 88.7545C318.561 89.5416 317.542 90.1533 316.298 90.578L316.944 92.4707ZM320.765 90.1942C321.774 89.2218 322.591 88.1342 323.21 86.9323L321.432 86.0164C320.918 87.0144 320.235 87.9268 319.377 88.7545L320.765 90.1942ZM323.205 86.9422C323.845 85.7332 324.311 84.4824 324.597 83.1912L322.645 82.7574C322.399 83.8663 321.997 84.9488 321.438 86.0064L323.205 86.9422ZM324.593 83.2107C324.903 81.934 325.113 80.7009 325.217 79.5122L323.225 79.3364C323.13 80.4144 322.939 81.5479 322.65 82.738L324.593 83.2107ZM325.214 79.5412C325.352 78.3696 325.406 77.3001 325.371 76.3373L323.372 76.4113C323.403 77.2485 323.357 78.2124 323.228 79.3075L325.214 79.5412ZM325.371 76.3743C325.371 75.4342 325.355 74.6913 325.319 74.1578L323.324 74.2908C323.355 74.7573 323.371 75.4478 323.371 76.3743H325.371ZM324.321 73.2243H316.571V75.2243H324.321V73.2243ZM317.571 74.2243V68.6243H315.571V74.2243H317.571ZM316.571 69.6243H339.171V67.6243H316.571V69.6243ZM338.171 68.6243V74.2243H340.171V68.6243H338.171ZM351.271 106.774V64.7243H349.271V106.774H351.271ZM350.271 63.7243H343.571V65.7243H350.271V63.7243ZM342.571 64.7243V106.774H344.571V64.7243H342.571ZM343.571 107.774H350.271V105.774H343.571V107.774ZM397.49 78.7243H398.49V77.7243H397.49V78.7243ZM397.49 85.2243V86.2243H398.49V85.2243H397.49ZM392.24 85.2243V84.2243H391.24V85.2243H392.24ZM392.24 106.774V107.774H393.24V106.774H392.24ZM385.84 106.774H384.84V107.774H385.84V106.774ZM385.84 65.2743V64.2743H384.84V65.2743H385.84ZM392.24 65.2743H393.24V64.2743H392.24V65.2743ZM392.24 78.7243H391.24V79.7243H392.24V78.7243ZM377.59 87.1243L376.863 87.8114L376.87 87.8185L377.59 87.1243ZM380.79 89.7743H381.79V89.2431L381.35 88.9457L380.79 89.7743ZM380.79 96.0743L380.466 97.0205L381.79 97.4733V96.0743H380.79ZM376.89 94.2243L377.405 93.3668L377.397 93.3624L376.89 94.2243ZM373.19 91.5743L372.544 92.3378L372.554 92.3457L373.19 91.5743ZM369.54 87.3743L370.372 86.8196L369.54 85.5715L368.708 86.8196L369.54 87.3743ZM365.89 91.5743L366.536 92.3377L366.536 92.3377L365.89 91.5743ZM362.24 94.2243L361.733 93.3623L361.726 93.3668L362.24 94.2243ZM358.29 96.0743H357.29V97.4617L358.606 97.023L358.29 96.0743ZM358.29 89.7743L357.776 88.9168L357.29 89.2081V89.7743H358.29ZM359.69 88.8243L359.102 88.0156L359.091 88.0235L359.08 88.0317L359.69 88.8243ZM360.79 87.9743L361.423 88.7483L361.43 88.7425L360.79 87.9743ZM361.79 87.0743L362.497 87.7814L362.509 87.7696L362.52 87.7575L361.79 87.0743ZM364.19 83.9743L365.043 84.4969L365.043 84.4969L364.19 83.9743ZM365.64 80.7743L364.689 80.4665L364.686 80.4754L364.683 80.4843L365.64 80.7743ZM366.39 77.2243L367.384 77.3318L367.385 77.329L366.39 77.2243ZM366.59 68.4243V67.4243H365.59V68.4243H366.59ZM373.09 68.4243H374.09V67.4243H373.09V68.4243ZM374.04 80.9743L373.076 81.2398L373.077 81.2434L374.04 80.9743ZM396.49 78.7243V85.2243H398.49V78.7243H396.49ZM397.49 84.2243H392.24V86.2243H397.49V84.2243ZM391.24 85.2243V106.774H393.24V85.2243H391.24ZM392.24 105.774H385.84V107.774H392.24V105.774ZM386.84 106.774V65.2743H384.84V106.774H386.84ZM385.84 66.2743H392.24V64.2743H385.84V66.2743ZM391.24 65.2743V78.7243H393.24V65.2743H391.24ZM392.24 79.7243H397.49V77.7243H392.24V79.7243ZM376.87 87.8185C377.825 88.8088 378.947 89.7361 380.23 90.6029L381.35 88.9457C380.166 88.1459 379.155 87.3065 378.31 86.4302L376.87 87.8185ZM379.79 89.7743V96.0743H381.79V89.7743H379.79ZM381.114 95.1282C379.923 94.7209 378.687 94.1363 377.405 93.3668L376.376 95.0818C377.76 95.9123 379.123 96.5611 380.466 97.0205L381.114 95.1282ZM377.397 93.3624C376.321 92.7292 375.131 91.8792 373.826 90.8029L372.554 92.3457C373.916 93.4695 375.193 94.386 376.383 95.0862L377.397 93.3624ZM373.836 90.8109C372.62 89.7821 371.463 88.4567 370.372 86.8196L368.708 87.929C369.883 89.6919 371.16 91.1666 372.544 92.3377L373.836 90.8109ZM368.708 86.8196C367.617 88.4567 366.46 89.7821 365.244 90.8109L366.536 92.3377C367.92 91.1666 369.197 89.6919 370.372 87.929L368.708 86.8196ZM365.244 90.8109C363.976 91.8843 362.805 92.7315 361.733 93.3624L362.747 95.0863C363.941 94.3838 365.205 93.4643 366.536 92.3377L365.244 90.8109ZM361.726 93.3668C360.447 94.1342 359.196 94.7182 357.974 95.1256L358.606 97.023C359.984 96.5637 361.367 95.9144 362.755 95.0818L361.726 93.3668ZM359.29 96.0743V89.7743H357.29V96.0743H359.29ZM358.805 90.6318C359.335 90.3133 359.834 89.9752 360.3 89.6169L359.08 88.0317C358.679 88.3401 358.245 88.6353 357.776 88.9168L358.805 90.6318ZM360.278 89.6331C360.661 89.3547 361.043 89.0598 361.423 88.7483L360.157 87.2004C359.804 87.4889 359.453 87.7606 359.102 88.0156L360.278 89.6331ZM361.43 88.7425C361.845 88.3965 362.203 88.0758 362.497 87.7814L361.083 86.3672C360.844 86.6062 360.535 86.8854 360.15 87.2061L361.43 88.7425ZM362.52 87.7575C363.526 86.6828 364.369 85.5963 365.043 84.4969L363.337 83.4518C362.745 84.419 361.988 85.3991 361.06 86.3912L362.52 87.7575ZM365.043 84.4969C365.718 83.3948 366.238 82.2503 366.597 81.0643L364.683 80.4843C364.376 81.4983 363.929 82.4872 363.337 83.4518L365.043 84.4969ZM366.591 81.0821C366.98 79.881 367.244 78.6304 367.384 77.3318L365.396 77.1168C365.27 78.2849 365.033 79.4009 364.689 80.4665L366.591 81.0821ZM367.385 77.329C367.522 76.0236 367.59 74.6384 367.59 73.1743H365.59C365.59 74.5769 365.525 75.8917 365.396 77.1196L367.385 77.329ZM367.59 73.1743V68.4243H365.59V73.1743H367.59ZM366.59 69.4243H373.09V67.4243H366.59V69.4243ZM372.09 68.4243V73.1743H374.09V68.4243H372.09ZM372.09 73.1743C372.09 76.1455 372.414 78.8371 373.076 81.2398L375.004 80.7088C374.399 78.5115 374.09 76.0032 374.09 73.1743H372.09ZM373.077 81.2434C373.757 83.6777 375.027 85.8687 376.863 87.8113L378.317 86.4373C376.687 84.7133 375.59 82.8043 375.003 80.7052L373.077 81.2434ZM420.378 67.5743H419.378V68.5743H420.378V67.5743ZM428.428 67.5743H429.428V66.5743H428.428V67.5743ZM428.428 72.1743V73.1743H429.428V72.1743H428.428ZM424.828 72.1743V71.1743H422.508L424.101 72.8609L424.828 72.1743ZM426.178 74.2743L427.101 73.8897L427.101 73.8897L426.178 74.2743ZM426.128 84.8743L427.049 85.264L427.049 85.264L426.128 84.8743ZM424.678 87.1743L425.403 87.8621L425.412 87.8528L425.421 87.8433L424.678 87.1743ZM422.578 88.6743L422.962 89.5974L422.978 89.5907L422.994 89.5834L422.578 88.6743ZM411.278 88.6743L410.861 89.5834L410.877 89.5907L410.893 89.5974L411.278 88.6743ZM409.128 87.2243L408.42 87.9314L408.43 87.941L408.44 87.9503L409.128 87.2243ZM407.678 85.1243L406.762 85.5271L406.765 85.534L406.768 85.541L407.678 85.1243ZM407.628 74.2743L406.704 73.8897L406.704 73.8897L407.628 74.2743ZM408.978 72.1743L409.705 72.8609L411.297 71.1743H408.978V72.1743ZM405.478 72.1743H404.478V73.1743H405.478V72.1743ZM405.478 67.5743V66.5743H404.478V67.5743H405.478ZM413.528 67.5743V68.5743H414.528V67.5743H413.528ZM413.528 64.7243V63.7243H412.528V64.7243H413.528ZM420.378 64.7243H421.378V63.7243H420.378V64.7243ZM435.228 92.8743L434.936 93.831L434.956 93.8369L434.975 93.8419L435.228 92.8743ZM437.228 93.8743L436.592 94.6462L436.616 94.6664L436.642 94.685L437.228 93.8743ZM438.628 95.5743L437.725 96.0042L437.729 96.0129L437.733 96.0215L438.628 95.5743ZM438.678 103.524L437.774 103.096L437.764 103.116L437.756 103.136L438.678 103.524ZM437.528 105.224L436.82 104.517L436.808 104.529L436.796 104.542L437.528 105.224ZM435.828 106.374L435.456 105.446L435.436 105.454L435.417 105.462L435.828 106.374ZM410.378 93.7243L410.895 94.5798L410.903 94.5749L410.912 94.5698L410.378 93.7243ZM444.428 73.2243H445.428V72.2243H444.428V73.2243ZM444.428 79.1243V80.1243H445.428V79.1243H444.428ZM438.778 79.1243V78.1243H437.778V79.1243H438.778ZM438.778 87.8743V88.8743H439.778V87.8743H438.778ZM432.828 87.8743H431.828V88.8743H432.828V87.8743ZM432.828 64.6743V63.6743H431.828V64.6743H432.828ZM438.778 64.6743H439.778V63.6743H438.778V64.6743ZM438.778 73.2243H437.778V74.2243H438.778V73.2243ZM432.678 98.3743L431.97 99.0814L432.006 99.1167L432.044 99.1483L432.678 98.3743ZM415.228 98.3743L414.408 97.8009L414.388 97.8297L414.37 97.8598L415.228 98.3743ZM415.478 101.674L414.999 102.552L414.999 102.552L415.478 101.674ZM420.078 76.0743L420.785 75.3672L420.785 75.3672L420.078 76.0743ZM413.778 76.0743L413.133 75.3094L413.123 75.318L413.113 75.3269L413.778 76.0743ZM413.528 83.3243L412.751 83.9549L412.763 83.9691L412.775 83.9828L413.528 83.3243ZM420.178 83.3243L419.425 82.6658L419.425 82.6658L420.178 83.3243ZM420.378 68.5743H428.428V66.5743H420.378V68.5743ZM427.428 67.5743V72.1743H429.428V67.5743H427.428ZM428.428 71.1743H424.828V73.1743H428.428V71.1743ZM424.101 72.8609C424.58 73.3686 424.965 73.965 425.254 74.6589L427.101 73.8897C426.723 72.9837 426.208 72.18 425.555 71.4877L424.101 72.8609ZM425.254 74.6589C425.537 75.3371 425.678 76.0397 425.678 76.7743H427.678C427.678 75.7756 427.485 74.8116 427.101 73.8897L425.254 74.6589ZM425.678 76.7743V81.9743H427.678V76.7743H425.678ZM425.678 81.9743C425.678 82.9249 425.515 83.7567 425.207 84.4847L427.049 85.264C427.474 84.2586 427.678 83.157 427.678 81.9743H425.678ZM425.207 84.4847C424.881 85.2541 424.456 85.9253 423.934 86.5054L425.421 87.8433C426.099 87.09 426.641 86.2279 427.049 85.264L425.207 84.4847ZM423.952 86.4866C423.44 87.0262 422.846 87.4514 422.161 87.7653L422.994 89.5834C423.909 89.1639 424.715 88.5891 425.403 87.8621L423.952 86.4866ZM422.193 87.7512C421.519 88.0318 420.801 88.1743 420.028 88.1743V90.1743C421.054 90.1743 422.036 89.9835 422.962 89.5974L422.193 87.7512ZM420.028 88.1743H413.828V90.1743H420.028V88.1743ZM413.828 88.1743C413.054 88.1743 412.336 88.0318 411.662 87.7512L410.893 89.5974C411.819 89.9835 412.801 90.1743 413.828 90.1743V88.1743ZM411.694 87.7653C410.993 87.4439 410.368 87.0222 409.815 86.4984L408.44 87.9503C409.154 88.6264 409.962 89.1714 410.861 89.5834L411.694 87.7653ZM409.835 86.5172C409.322 86.0044 408.906 85.4037 408.587 84.7077L406.768 85.541C407.183 86.445 407.733 87.2443 408.42 87.9314L409.835 86.5172ZM408.593 84.7216C408.283 84.0184 408.128 83.2726 408.128 82.4743H406.128C406.128 83.5427 406.338 84.5636 406.762 85.5271L408.593 84.7216ZM408.128 82.4743V76.7743H406.128V82.4743H408.128ZM408.128 76.7743C408.128 76.0397 408.268 75.3371 408.551 74.6589L406.704 73.8897C406.32 74.8116 406.128 75.7756 406.128 76.7743H408.128ZM408.551 74.6589C408.84 73.965 409.225 73.3686 409.705 72.8609L408.251 71.4877C407.597 72.18 407.082 72.9837 406.704 73.8897L408.551 74.6589ZM408.978 71.1743H405.478V73.1743H408.978V71.1743ZM406.478 72.1743V67.5743H404.478V72.1743H406.478ZM405.478 68.5743H413.528V66.5743H405.478V68.5743ZM414.528 67.5743V64.7243H412.528V67.5743H414.528ZM413.528 65.7243H420.378V63.7243H413.528V65.7243ZM419.378 64.7243V67.5743H421.378V64.7243H419.378ZM415.478 93.5243H432.728V91.5243H415.478V93.5243ZM432.728 93.5243C433.541 93.5243 434.275 93.6297 434.936 93.831L435.519 91.9176C434.647 91.6523 433.714 91.5243 432.728 91.5243V93.5243ZM434.975 93.8419C435.613 94.0082 436.146 94.279 436.592 94.6462L437.863 93.1024C437.176 92.5363 436.376 92.1404 435.48 91.9067L434.975 93.8419ZM436.642 94.685C437.099 95.0153 437.46 95.4483 437.725 96.0042L439.53 95.1444C439.128 94.3003 438.556 93.6 437.813 93.0636L436.642 94.685ZM437.733 96.0215C437.984 96.5234 438.128 97.1477 438.128 97.9243H440.128C440.128 96.9009 439.938 95.9585 439.522 95.1271L437.733 96.0215ZM438.128 97.9243V101.524H440.128V97.9243H438.128ZM438.128 101.524C438.128 102.076 438.01 102.597 437.774 103.096L439.581 103.952C439.945 103.185 440.128 102.373 440.128 101.524H438.128ZM437.756 103.136C437.541 103.647 437.232 104.106 436.82 104.517L438.235 105.931C438.823 105.343 439.281 104.668 439.599 103.912L437.756 103.136ZM436.796 104.542C436.435 104.929 435.993 105.231 435.456 105.446L436.199 107.303C436.995 106.984 437.687 106.519 438.259 105.907L436.796 104.542ZM435.417 105.462C434.886 105.702 434.31 105.824 433.678 105.824V107.824C434.579 107.824 435.436 107.647 436.238 107.286L435.417 105.462ZM433.678 105.824H413.978V107.824H433.678V105.824ZM413.978 105.824C412.605 105.824 411.548 105.404 410.723 104.606L409.332 106.043C410.574 107.244 412.15 107.824 413.978 107.824V105.824ZM410.723 104.606C409.92 103.828 409.478 102.757 409.478 101.274H407.478C407.478 103.192 408.069 104.82 409.332 106.043L410.723 104.606ZM409.478 101.274V97.7243H407.478V101.274H409.478ZM409.478 97.7243C409.478 96.0608 410.014 95.1135 410.895 94.5798L409.86 92.8688C408.208 93.8685 407.478 95.5878 407.478 97.7243H409.478ZM410.912 94.5698C411.964 93.9049 413.457 93.5243 415.478 93.5243V91.5243C413.231 91.5243 411.324 91.9437 409.844 92.8788L410.912 94.5698ZM443.428 73.2243V79.1243H445.428V73.2243H443.428ZM444.428 78.1243H438.778V80.1243H444.428V78.1243ZM437.778 79.1243V87.8743H439.778V79.1243H437.778ZM438.778 86.8743H432.828V88.8743H438.778V86.8743ZM433.828 87.8743V64.6743H431.828V87.8743H433.828ZM432.828 65.6743H438.778V63.6743H432.828V65.6743ZM437.778 64.6743V73.2243H439.778V64.6743H437.778ZM438.778 74.2243H444.428V72.2243H438.778V74.2243ZM434.228 100.474V99.4243H432.228V100.474H434.228ZM434.228 99.4243C434.228 98.6679 433.862 98.0514 433.311 97.6004L432.044 99.1483C432.226 99.2973 432.228 99.3807 432.228 99.4243H434.228ZM433.385 97.6672C432.866 97.1485 432.212 96.8743 431.478 96.8743V98.8743C431.676 98.8743 431.822 98.9335 431.97 99.0814L433.385 97.6672ZM431.478 96.8743H417.028V98.8743H431.478V96.8743ZM417.028 96.8743C416.498 96.8743 416.006 96.9188 415.585 97.0358C415.174 97.1498 414.713 97.3662 414.408 97.8009L416.047 98.9478C415.976 99.0491 415.931 99.0155 416.12 98.9628C416.299 98.9132 416.591 98.8743 417.028 98.8743V96.8743ZM414.37 97.8598C414.093 98.3224 413.928 98.8315 413.928 99.3743H415.928C415.928 99.2505 415.963 99.0929 416.085 98.8888L414.37 97.8598ZM413.928 99.3743V100.624H415.928V99.3743H413.928ZM413.928 100.624C413.928 101.404 414.242 102.139 414.999 102.552L415.956 100.796C415.942 100.789 415.94 100.785 415.944 100.789C415.946 100.791 415.947 100.793 415.949 100.795C415.95 100.797 415.951 100.798 415.951 100.798C415.951 100.798 415.945 100.787 415.939 100.76C415.933 100.733 415.928 100.689 415.928 100.624H413.928ZM414.999 102.552C415.575 102.866 416.283 102.974 417.028 102.974V100.974C416.439 100.974 416.114 100.882 415.956 100.796L414.999 102.552ZM417.028 102.974H431.528V100.974H417.028V102.974ZM431.528 102.974C432.22 102.974 432.926 102.824 433.464 102.349C434.027 101.853 434.228 101.163 434.228 100.474H432.228C432.228 100.785 432.145 100.846 432.141 100.849C432.113 100.874 431.969 100.974 431.528 100.974V102.974ZM421.878 81.2743V78.0743H419.878V81.2743H421.878ZM421.878 78.0743C421.878 77.027 421.518 76.1003 420.785 75.3672L419.37 76.7814C419.704 77.115 419.878 77.5217 419.878 78.0743H421.878ZM420.785 75.3672C420.043 74.6258 419.096 74.2743 418.028 74.2743V76.2743C418.626 76.2743 419.045 76.4562 419.37 76.7814L420.785 75.3672ZM418.028 74.2743H415.928V76.2743H418.028V74.2743ZM415.928 74.2743C414.883 74.2743 413.94 74.63 413.133 75.3094L414.422 76.8392C414.882 76.4519 415.372 76.2743 415.928 76.2743V74.2743ZM413.113 75.3269C412.301 76.0493 411.878 76.9875 411.878 78.0743H413.878C413.878 77.5611 414.055 77.166 414.442 76.8217L413.113 75.3269ZM411.878 78.0743V81.2743H413.878V78.0743H411.878ZM411.878 81.2743C411.878 82.2867 412.144 83.2077 412.751 83.9549L414.304 82.6937C414.044 82.3743 413.878 81.9286 413.878 81.2743H411.878ZM412.775 83.9828C413.457 84.7625 414.381 85.1243 415.428 85.1243V83.1243C414.874 83.1243 414.531 82.9528 414.28 82.6658L412.775 83.9828ZM415.428 85.1243H418.228V83.1243H415.428V85.1243ZM418.228 85.1243C419.293 85.1243 420.24 84.7719 420.93 83.9828L419.425 82.6658C419.182 82.9434 418.828 83.1243 418.228 83.1243V85.1243ZM420.93 83.9828C421.584 83.236 421.878 82.3049 421.878 81.2743H419.878C419.878 81.9104 419.705 82.346 419.425 82.6658L420.93 83.9828Z" fill="black" fill-opacity="0.3"/>
<path d="M108.382 179.803H104.332C103.882 179.803 103.432 179.728 102.982 179.578C102.532 179.411 102.115 179.161 101.732 178.828C101.365 178.478 101.065 178.028 100.832 177.478C100.599 176.911 100.482 176.228 100.482 175.428V169.478C100.482 168.828 100.582 168.228 100.782 167.678C100.999 167.111 101.299 166.619 101.682 166.203C102.082 165.786 102.565 165.461 103.132 165.228C103.699 164.994 104.349 164.878 105.082 164.878H107.307C108.007 164.878 108.632 165.003 109.182 165.253C109.732 165.486 110.199 165.819 110.582 166.253C110.982 166.669 111.282 167.161 111.482 167.728C111.699 168.294 111.807 168.903 111.807 169.553V175.578C111.807 176.211 111.707 176.786 111.507 177.303C111.324 177.819 111.074 178.269 110.757 178.653C110.44 179.019 110.074 179.303 109.657 179.503C109.24 179.703 108.815 179.803 108.382 179.803ZM117.257 184.253V163.228H113.907V184.253H117.257ZM105.582 177.228H106.832C107.149 177.228 107.415 177.161 107.632 177.028C107.865 176.894 108.057 176.728 108.207 176.528C108.357 176.311 108.465 176.078 108.532 175.828C108.615 175.561 108.657 175.311 108.657 175.078V169.778C108.657 169.511 108.607 169.261 108.507 169.028C108.407 168.778 108.274 168.561 108.107 168.378C107.957 168.178 107.765 168.028 107.532 167.928C107.315 167.811 107.082 167.753 106.832 167.753H105.582C105.332 167.753 105.09 167.811 104.857 167.928C104.624 168.028 104.415 168.178 104.232 168.378C104.065 168.561 103.924 168.778 103.807 169.028C103.707 169.261 103.657 169.511 103.657 169.778V175.078C103.657 175.894 103.815 176.461 104.132 176.778C104.465 177.078 104.949 177.228 105.582 177.228ZM129.261 167.753C129.244 168.003 129.228 168.378 129.211 168.878C129.211 169.361 129.236 169.911 129.286 170.528C129.353 171.144 129.453 171.794 129.586 172.478C129.736 173.144 129.953 173.786 130.236 174.403C130.536 175.003 130.919 175.553 131.386 176.053C131.853 176.536 132.436 176.894 133.136 177.128V180.053C132.336 179.903 131.578 179.628 130.861 179.228C130.244 178.894 129.619 178.428 128.986 177.828C128.353 177.228 127.853 176.428 127.486 175.428C127.336 175.894 127.136 176.319 126.886 176.703C126.653 177.086 126.386 177.428 126.086 177.728C125.786 178.028 125.469 178.294 125.136 178.528C124.819 178.761 124.503 178.961 124.186 179.128C123.436 179.544 122.644 179.853 121.811 180.053V177.128C122.494 176.894 123.069 176.536 123.536 176.053C124.019 175.553 124.403 175.003 124.686 174.403C124.986 173.786 125.211 173.144 125.361 172.478C125.511 171.794 125.619 171.144 125.686 170.528C125.753 169.911 125.778 169.361 125.761 168.878C125.761 168.378 125.753 168.003 125.736 167.753H121.561V165.078H133.436V167.753H129.261ZM134.611 163.178H137.286V184.228H134.611V173.828H131.786V170.278H134.611V163.178ZM141.761 163.178V184.228H138.761V163.178H141.761ZM154.613 165.078H165.438V167.553C165.354 168.436 165.154 169.303 164.838 170.153C164.521 171.003 164.129 171.828 163.663 172.628C163.196 173.411 162.679 174.169 162.113 174.903C161.546 175.619 160.971 176.286 160.388 176.903C159.004 178.353 157.471 179.711 155.788 180.978V176.803C156.654 176.103 157.438 175.361 158.138 174.578C158.854 173.794 159.471 173.019 159.988 172.253C160.504 171.486 160.921 170.761 161.238 170.078C161.554 169.394 161.763 168.794 161.863 168.278H154.613V165.078ZM171.313 184.228V163.453H168.013V184.228H171.313ZM182.951 164.328H186.351V167.078H192.801V169.903H187.701C188.018 170.519 188.335 171.053 188.651 171.503C188.985 171.953 189.343 172.353 189.726 172.703C190.11 173.036 190.535 173.328 191.001 173.578C191.485 173.811 192.043 174.028 192.676 174.228V176.628C191.926 176.494 191.168 176.278 190.401 175.978C189.635 175.661 188.901 175.278 188.201 174.828C187.518 174.378 186.893 173.869 186.326 173.303C185.76 172.719 185.293 172.103 184.926 171.453C184.576 172.119 184.051 172.761 183.351 173.378C182.651 173.994 181.91 174.544 181.126 175.028C180.343 175.494 179.576 175.886 178.826 176.203C178.093 176.519 177.51 176.711 177.076 176.778V174.178C177.826 173.844 178.46 173.528 178.976 173.228C179.493 172.911 179.935 172.594 180.301 172.278C180.668 171.944 180.985 171.594 181.251 171.228C181.518 170.844 181.785 170.403 182.051 169.903H177.001V167.078H182.951V164.328ZM186.501 179.128H194.251V181.978H175.301V179.128H183.326V176.253H186.501V179.128ZM205.71 164.628H209.735V166.928H207.935C208.219 167.228 208.444 167.578 208.61 167.978C208.777 168.378 208.86 168.794 208.86 169.228V171.828C208.86 172.361 208.769 172.844 208.585 173.278C208.402 173.711 208.16 174.094 207.86 174.428C207.56 174.744 207.21 174.994 206.81 175.178C206.41 175.344 205.985 175.428 205.535 175.428H202.435C201.985 175.428 201.56 175.344 201.16 175.178C200.76 174.994 200.402 174.753 200.085 174.453C199.785 174.153 199.544 173.803 199.36 173.403C199.177 172.986 199.085 172.544 199.085 172.078V169.228C199.085 168.794 199.169 168.378 199.335 167.978C199.502 167.578 199.727 167.228 200.01 166.928H198.26V164.628H202.285V163.203H205.71V164.628ZM199.96 176.828H215.01V179.678C214.977 180.294 214.91 180.878 214.81 181.428C214.71 181.978 214.594 182.461 214.46 182.878C214.31 183.361 214.152 183.811 213.985 184.228H210.91C211.194 183.678 211.41 183.128 211.56 182.578C211.71 182.044 211.819 181.561 211.885 181.128C211.952 180.628 211.985 180.144 211.985 179.678H199.96V176.828ZM217.735 167.453V170.403H214.91V174.778H211.935V163.178H214.91V167.453H217.735ZM205.96 171.478V169.878C205.96 169.478 205.827 169.144 205.56 168.878C205.294 168.611 204.952 168.478 204.535 168.478H203.485C203.085 168.478 202.727 168.611 202.41 168.878C202.11 169.144 201.96 169.478 201.96 169.878V171.478C201.96 171.894 202.069 172.236 202.285 172.503C202.519 172.769 202.835 172.903 203.235 172.903H204.635C205.052 172.903 205.377 172.769 205.61 172.503C205.844 172.236 205.96 171.894 205.96 171.478ZM240.932 174.678H221.732V172.103H240.932V174.678ZM238.682 184.203H223.807V176.203H226.957V178.028H235.682V176.203H238.682V184.203ZM226.957 181.753H235.682V180.278H226.957V181.753ZM233.007 163.153V163.903C233.007 164.336 233.165 164.794 233.482 165.278C233.799 165.744 234.232 166.194 234.782 166.628C235.349 167.044 236.015 167.411 236.782 167.728C237.549 168.044 238.374 168.269 239.257 168.403V170.903C238.69 170.803 238.015 170.669 237.232 170.503C236.449 170.319 235.665 170.078 234.882 169.778C234.115 169.478 233.39 169.103 232.707 168.653C232.04 168.186 231.54 167.611 231.207 166.928C231.007 167.411 230.699 167.844 230.282 168.228C229.882 168.594 229.415 168.919 228.882 169.203C228.365 169.486 227.815 169.728 227.232 169.928C226.649 170.128 226.082 170.294 225.532 170.428C224.982 170.561 224.482 170.669 224.032 170.753C223.582 170.819 223.232 170.869 222.982 170.903V168.228C223.899 168.161 224.749 167.986 225.532 167.703C226.332 167.403 227.024 167.053 227.607 166.653C228.207 166.236 228.674 165.786 229.007 165.303C229.357 164.803 229.532 164.328 229.532 163.878V163.153H233.007ZM261.683 179.803H257.633C257.183 179.803 256.733 179.728 256.283 179.578C255.833 179.411 255.416 179.161 255.033 178.828C254.666 178.478 254.366 178.028 254.133 177.478C253.899 176.911 253.783 176.228 253.783 175.428V169.478C253.783 168.828 253.883 168.228 254.083 167.678C254.299 167.111 254.599 166.619 254.983 166.203C255.383 165.786 255.866 165.461 256.433 165.228C256.999 164.994 257.649 164.878 258.383 164.878H260.608C261.308 164.878 261.933 165.003 262.483 165.253C263.033 165.486 263.499 165.819 263.883 166.253C264.283 166.669 264.583 167.161 264.783 167.728C264.999 168.294 265.108 168.903 265.108 169.553V175.578C265.108 176.211 265.008 176.786 264.808 177.303C264.624 177.819 264.374 178.269 264.058 178.653C263.741 179.019 263.374 179.303 262.958 179.503C262.541 179.703 262.116 179.803 261.683 179.803ZM270.558 184.253V163.228H267.208V184.253H270.558ZM258.883 177.228H260.133C260.449 177.228 260.716 177.161 260.933 177.028C261.166 176.894 261.358 176.728 261.508 176.528C261.658 176.311 261.766 176.078 261.833 175.828C261.916 175.561 261.958 175.311 261.958 175.078V169.778C261.958 169.511 261.908 169.261 261.808 169.028C261.708 168.778 261.574 168.561 261.408 168.378C261.258 168.178 261.066 168.028 260.833 167.928C260.616 167.811 260.383 167.753 260.133 167.753H258.883C258.633 167.753 258.391 167.811 258.158 167.928C257.924 168.028 257.716 168.178 257.533 168.378C257.366 168.561 257.224 168.778 257.108 169.028C257.008 169.261 256.958 169.511 256.958 169.778V175.078C256.958 175.894 257.116 176.461 257.433 176.778C257.766 177.078 258.249 177.228 258.883 177.228ZM292.662 163.203V184.253H289.162V180.478H274.862V177.553H279.637V173.953C279.187 173.953 278.745 173.869 278.312 173.703C277.878 173.519 277.487 173.278 277.137 172.978C276.803 172.661 276.528 172.294 276.312 171.878C276.112 171.461 276.012 171.019 276.012 170.553V167.153C276.012 166.686 276.12 166.244 276.337 165.828C276.553 165.411 276.828 165.044 277.162 164.728C277.512 164.411 277.903 164.169 278.337 164.003C278.787 163.819 279.237 163.728 279.687 163.728H282.837C283.287 163.728 283.728 163.819 284.162 164.003C284.595 164.169 284.978 164.411 285.312 164.728C285.645 165.044 285.912 165.411 286.112 165.828C286.312 166.244 286.412 166.686 286.412 167.153V170.553C286.412 171.019 286.312 171.461 286.112 171.878C285.912 172.294 285.645 172.661 285.312 172.978C284.978 173.278 284.595 173.519 284.162 173.703C283.745 173.869 283.312 173.953 282.862 173.953V177.553H289.162V163.203H292.662ZM283.237 167.803C283.237 167.403 283.095 167.069 282.812 166.803C282.545 166.519 282.203 166.378 281.787 166.378H280.712C280.295 166.378 279.928 166.519 279.612 166.803C279.295 167.069 279.137 167.403 279.137 167.803V169.878C279.137 170.294 279.295 170.644 279.612 170.928C279.928 171.194 280.295 171.328 280.712 171.328H281.787C282.203 171.328 282.545 171.194 282.812 170.928C283.095 170.644 283.237 170.294 283.237 169.878V167.803ZM300.898 179.778C300.448 179.778 299.973 179.711 299.473 179.578C298.99 179.444 298.54 179.219 298.123 178.903C297.707 178.569 297.357 178.136 297.073 177.603C296.807 177.053 296.673 176.361 296.673 175.528V168.978C296.673 168.311 296.782 167.703 296.998 167.153C297.215 166.603 297.507 166.128 297.873 165.728C298.257 165.328 298.69 165.011 299.173 164.778C299.673 164.544 300.19 164.428 300.723 164.428L302.298 164.403C302.865 164.403 303.407 164.511 303.923 164.728C304.44 164.928 304.898 165.228 305.298 165.628C305.698 166.011 306.015 166.478 306.248 167.028C306.482 167.561 306.598 168.161 306.598 168.828V175.378C306.598 176.028 306.473 176.619 306.223 177.153C305.99 177.686 305.682 178.144 305.298 178.528C304.915 178.911 304.49 179.211 304.023 179.428C303.573 179.644 303.123 179.753 302.673 179.753L300.898 179.778ZM309.523 163.453L312.673 163.478V184.253H309.523V173.703H307.423V170.178H309.523V163.453ZM317.623 163.453V184.253H314.573V163.478L317.623 163.453ZM301.948 177.103C302.582 177.069 303.015 176.853 303.248 176.453C303.498 176.036 303.623 175.578 303.623 175.078V169.403C303.623 168.853 303.448 168.378 303.098 167.978C302.748 167.578 302.315 167.378 301.798 167.378H301.248C300.748 167.378 300.348 167.594 300.048 168.028C299.765 168.444 299.623 168.936 299.623 169.503V175.028C299.623 175.661 299.79 176.178 300.123 176.578C300.473 176.978 300.965 177.161 301.598 177.128L301.948 177.103ZM327.059 167.803V172.203H338.384V175.178H332.809V178.778H340.709V181.703H321.634V178.778H329.234V175.178H323.634V164.778H338.159V167.803H327.059ZM372.463 177.078H364.663V184.203H361.363V177.078H353.563V174.078H372.463V177.078ZM370.288 164.428V167.353C370.271 167.986 370.188 168.628 370.038 169.278C369.905 169.911 369.755 170.494 369.588 171.028C369.405 171.644 369.188 172.244 368.938 172.828H365.813C366.096 172.261 366.33 171.653 366.513 171.003C366.696 170.353 366.838 169.761 366.938 169.228C367.055 168.594 367.13 167.969 367.163 167.353H355.313V164.428H370.288ZM378.323 184.478V178.753H390.073V177.703H378.323V175.653H393.598V181.103H381.548V182.153H393.598V184.503H378.223L378.323 184.478ZM395.723 171.478V174.153H376.473V171.478H388.848C389.081 170.761 389.256 170.094 389.373 169.478C389.49 168.844 389.573 168.294 389.623 167.828C389.69 167.278 389.715 166.778 389.698 166.328H378.423V163.453H392.998V166.078C392.981 166.494 392.94 166.961 392.873 167.478C392.806 167.978 392.723 168.478 392.623 168.978C392.54 169.461 392.456 169.928 392.373 170.378C392.29 170.811 392.215 171.178 392.148 171.478H395.723ZM403.35 172.128H411.325V174.678H400.075V168.403H407.575V166.953H400.1V164.403H410.85V170.403H403.35V172.128ZM413.775 163.178H417.125V175.178H413.775V163.178ZM405.175 176.803H414.175C414.625 176.803 415.042 176.853 415.425 176.953C415.825 177.053 416.167 177.211 416.45 177.428C416.75 177.644 416.983 177.919 417.15 178.253C417.317 178.586 417.4 178.986 417.4 179.453V181.503C417.4 182.353 417.133 183.019 416.6 183.503C416.067 183.986 415.35 184.228 414.45 184.228H404.95C404.033 184.228 403.3 183.969 402.75 183.453C402.217 182.953 401.95 182.344 401.95 181.628V179.478C401.95 178.994 402.05 178.586 402.25 178.253C402.467 177.903 402.733 177.628 403.05 177.428C403.367 177.211 403.708 177.053 404.075 176.953C404.458 176.853 404.825 176.803 405.175 176.803ZM413.3 179.478H406.275C405.792 179.478 405.483 179.553 405.35 179.703C405.217 179.836 405.142 179.994 405.125 180.178V181.078C405.125 181.261 405.15 181.403 405.2 181.503C405.267 181.603 405.358 181.669 405.475 181.703C405.592 181.753 405.717 181.778 405.85 181.778C406 181.794 406.158 181.803 406.325 181.803H413.35C413.65 181.803 413.908 181.736 414.125 181.603C414.342 181.469 414.45 181.286 414.45 181.053V180.328C414.45 180.094 414.342 179.894 414.125 179.728C413.908 179.561 413.633 179.478 413.3 179.478ZM436.888 164.203C437.338 164.203 437.763 164.294 438.163 164.478C438.58 164.644 438.938 164.886 439.238 165.203C439.555 165.519 439.797 165.886 439.963 166.303C440.147 166.719 440.238 167.161 440.238 167.628V171.078C440.238 171.561 440.147 172.011 439.963 172.428C439.797 172.844 439.555 173.211 439.238 173.528C438.938 173.844 438.58 174.094 438.163 174.278C437.763 174.444 437.338 174.528 436.888 174.528H433.663C433.213 174.528 432.78 174.444 432.363 174.278C431.947 174.094 431.58 173.844 431.263 173.528C430.947 173.211 430.688 172.844 430.488 172.428C430.305 172.011 430.213 171.561 430.213 171.078V167.628C430.213 167.161 430.305 166.719 430.488 166.303C430.688 165.886 430.947 165.519 431.263 165.203C431.58 164.886 431.947 164.644 432.363 164.478C432.78 164.294 433.213 164.203 433.663 164.203H436.888ZM437.288 170.403V168.328C437.288 167.894 437.147 167.544 436.863 167.278C436.597 166.994 436.247 166.853 435.813 166.853H434.738C434.305 166.853 433.93 166.994 433.613 167.278C433.297 167.544 433.138 167.894 433.138 168.328V170.403C433.138 170.819 433.297 171.169 433.613 171.453C433.93 171.736 434.305 171.878 434.738 171.878H435.813C436.247 171.878 436.597 171.736 436.863 171.453C437.147 171.169 437.288 170.819 437.288 170.403ZM444.938 163.228H448.438V176.728H444.938V173.278H441.463V170.528H444.938V168.678H441.463V165.928H444.938V163.228ZM449.063 183.728H434.263V176.653H437.138V180.728H449.063V183.728ZM472.275 174.678H453.075V172.103H472.275V174.678ZM470.025 184.203H455.15V176.203H458.3V178.028H467.025V176.203H470.025V184.203ZM458.3 181.753H467.025V180.278H458.3V181.753ZM464.35 163.153V163.903C464.35 164.336 464.508 164.794 464.825 165.278C465.141 165.744 465.575 166.194 466.125 166.628C466.691 167.044 467.358 167.411 468.125 167.728C468.891 168.044 469.716 168.269 470.6 168.403V170.903C470.033 170.803 469.358 170.669 468.575 170.503C467.791 170.319 467.008 170.078 466.225 169.778C465.458 169.478 464.733 169.103 464.05 168.653C463.383 168.186 462.883 167.611 462.55 166.928C462.35 167.411 462.041 167.844 461.625 168.228C461.225 168.594 460.758 168.919 460.225 169.203C459.708 169.486 459.158 169.728 458.575 169.928C457.991 170.128 457.425 170.294 456.875 170.428C456.325 170.561 455.825 170.669 455.375 170.753C454.925 170.819 454.575 170.869 454.325 170.903V168.228C455.241 168.161 456.091 167.986 456.875 167.703C457.675 167.403 458.366 167.053 458.95 166.653C459.55 166.236 460.016 165.786 460.35 165.303C460.7 164.803 460.875 164.328 460.875 163.878V163.153H464.35ZM489.428 162.928C489.828 162.928 490.261 163.003 490.728 163.153C491.194 163.286 491.628 163.503 492.028 163.803C492.428 164.086 492.753 164.436 493.003 164.853C493.269 165.269 493.403 165.753 493.403 166.303V167.878C493.403 168.378 493.294 168.828 493.078 169.228C492.878 169.628 492.586 169.969 492.203 170.253C491.836 170.519 491.394 170.728 490.878 170.878C490.378 171.011 489.828 171.078 489.228 171.078H482.328C481.828 171.078 481.336 171.003 480.853 170.853C480.386 170.686 479.961 170.469 479.578 170.203C479.211 169.919 478.911 169.603 478.678 169.253C478.461 168.886 478.353 168.494 478.353 168.078V166.103C478.353 165.586 478.469 165.136 478.703 164.753C478.953 164.353 479.261 164.019 479.628 163.753C480.011 163.486 480.419 163.286 480.853 163.153C481.303 163.003 481.728 162.928 482.128 162.928H489.428ZM478.528 178.878H489.378V177.728H478.528V175.728H492.928V181.278H481.478V182.303H493.178V184.478H478.528V178.878ZM495.278 174.653H476.278V172.053H495.278V174.653ZM488.828 168.678C489.328 168.678 489.711 168.511 489.978 168.178C490.261 167.844 490.403 167.486 490.403 167.103C490.403 166.703 490.261 166.336 489.978 166.003C489.711 165.669 489.328 165.503 488.828 165.503H482.903C482.419 165.503 482.036 165.669 481.753 166.003C481.486 166.336 481.353 166.703 481.353 167.103C481.353 167.486 481.486 167.844 481.753 168.178C482.036 168.511 482.419 168.678 482.903 168.678H488.828ZM509.783 184.503V178.978H521.133V177.828H509.783V175.803H524.608V181.203H512.958V182.153H524.608V184.503H509.783ZM514.758 164.503H518.358V166.528H516.433C516.683 166.794 516.883 167.103 517.033 167.453C517.183 167.803 517.258 168.178 517.258 168.578V171.553C517.258 171.953 517.175 172.336 517.008 172.703C516.858 173.053 516.65 173.361 516.383 173.628C516.133 173.894 515.833 174.111 515.483 174.278C515.133 174.428 514.767 174.503 514.383 174.503H511.608C511.225 174.503 510.85 174.428 510.483 174.278C510.133 174.111 509.817 173.894 509.533 173.628C509.267 173.361 509.05 173.053 508.883 172.703C508.717 172.336 508.633 171.953 508.633 171.553V168.578C508.633 168.178 508.708 167.811 508.858 167.478C509.008 167.128 509.225 166.811 509.508 166.528H508.133V164.503H511.708V163.303H514.758V164.503ZM527.333 167.603V170.553H524.458V174.453H521.308V163.178H524.458V167.603H527.333ZM514.733 170.953V169.153C514.733 168.803 514.617 168.511 514.383 168.278C514.15 168.044 513.842 167.928 513.458 167.928H512.533C512.167 167.928 511.842 168.044 511.558 168.278C511.292 168.511 511.158 168.803 511.158 169.153V170.953C511.158 171.303 511.292 171.603 511.558 171.853C511.842 172.103 512.167 172.228 512.533 172.228H513.458C513.842 172.228 514.15 172.103 514.383 171.853C514.617 171.603 514.733 171.303 514.733 170.953ZM559.059 177.228H551.234V184.203H548.009V177.228H540.184V174.078H559.059V177.228ZM551.259 164.128C551.259 164.411 551.309 164.703 551.409 165.003C551.526 165.303 551.709 165.561 551.959 165.778C552.226 166.028 552.551 166.303 552.934 166.603C553.334 166.886 553.776 167.178 554.259 167.478C554.759 167.761 555.301 168.044 555.884 168.328C556.467 168.611 557.084 168.861 557.734 169.078V171.753C556.734 171.536 555.742 171.236 554.759 170.853C553.909 170.519 553.017 170.086 552.084 169.553C551.167 169.019 550.342 168.353 549.609 167.553C548.859 168.353 548.009 169.044 547.059 169.628C546.109 170.211 545.192 170.694 544.309 171.078C543.276 171.528 542.234 171.903 541.184 172.203V169.403C541.834 169.186 542.451 168.928 543.034 168.628C543.634 168.311 544.184 167.986 544.684 167.653C545.201 167.303 545.667 166.969 546.084 166.653C546.501 166.336 546.851 166.053 547.134 165.803C547.384 165.569 547.567 165.303 547.684 165.003C547.817 164.703 547.884 164.428 547.884 164.178V163.203H551.259V164.128ZM578.542 163.803C578.992 163.803 579.417 163.894 579.817 164.078C580.217 164.244 580.567 164.486 580.867 164.803C581.184 165.119 581.426 165.486 581.592 165.903C581.776 166.319 581.867 166.761 581.867 167.228V170.678C581.867 171.144 581.776 171.586 581.592 172.003C581.426 172.419 581.184 172.786 580.867 173.103C580.567 173.403 580.217 173.644 579.817 173.828C579.417 174.011 578.992 174.103 578.542 174.103H575.342C574.892 174.103 574.459 174.011 574.042 173.828C573.626 173.644 573.259 173.403 572.942 173.103C572.626 172.786 572.376 172.419 572.192 172.003C572.009 171.586 571.917 171.144 571.917 170.678V167.228C571.917 166.761 572.009 166.319 572.192 165.903C572.376 165.486 572.626 165.119 572.942 164.803C573.259 164.486 573.626 164.244 574.042 164.078C574.459 163.894 574.892 163.803 575.342 163.803H578.542ZM585.892 176.103C586.009 176.969 586.226 177.811 586.542 178.628C586.859 179.444 587.217 180.211 587.617 180.928C588.017 181.628 588.426 182.261 588.842 182.828C589.259 183.394 589.626 183.861 589.942 184.228H586.667C586.517 184.044 586.326 183.778 586.092 183.428C585.859 183.094 585.626 182.728 585.392 182.328C585.176 181.928 584.967 181.528 584.767 181.128C584.584 180.728 584.459 180.369 584.392 180.053C584.259 180.503 584.101 180.969 583.917 181.453C583.751 181.869 583.542 182.319 583.292 182.803C583.059 183.303 582.776 183.778 582.442 184.228H579.192C579.359 184.044 579.492 183.886 579.592 183.753C579.709 183.619 579.809 183.486 579.892 183.353C579.992 183.236 580.084 183.111 580.167 182.978C580.251 182.861 580.351 182.711 580.467 182.528C580.234 182.244 580.001 181.953 579.767 181.653C579.534 181.353 579.326 181.078 579.142 180.828C578.926 180.544 578.717 180.269 578.517 180.003C578.017 181.469 577.234 182.878 576.167 184.228H572.667C573.301 183.578 573.859 182.878 574.342 182.128C574.842 181.378 575.267 180.636 575.617 179.903C575.984 179.153 576.276 178.444 576.492 177.778C576.709 177.111 576.867 176.553 576.967 176.103H580.017C580.134 176.853 580.351 177.586 580.667 178.303C580.984 179.019 581.326 179.669 581.692 180.253C581.909 179.719 582.084 179.211 582.217 178.728C582.367 178.228 582.492 177.786 582.592 177.403C582.692 176.953 582.784 176.519 582.867 176.103H585.892ZM588.892 175.003V163.178H585.742V175.003H588.892ZM578.917 170.003V167.878C578.917 167.461 578.776 167.119 578.492 166.853C578.226 166.586 577.884 166.453 577.467 166.453H576.392C575.976 166.453 575.609 166.586 575.292 166.853C574.976 167.119 574.817 167.461 574.817 167.878V170.003C574.817 170.419 574.976 170.769 575.292 171.053C575.609 171.319 575.976 171.453 576.392 171.453H577.467C577.884 171.453 578.226 171.319 578.492 171.053C578.776 170.769 578.917 170.419 578.917 170.003ZM596.674 183.953V177.228H599.624V181.003H611.549V183.953H596.674ZM596.674 170.928V163.728H599.624V168.078H611.299V170.928H596.674ZM613.524 175.678H593.949V172.978H613.524V175.678ZM178.806 204.428C178.956 203.844 179.148 203.211 179.381 202.528C179.615 201.844 179.865 201.161 180.131 200.478C180.415 199.794 180.69 199.161 180.956 198.578H182.581C182.431 199.211 182.273 199.894 182.106 200.628C181.94 201.344 181.79 202.061 181.656 202.778C181.523 203.478 181.415 204.119 181.331 204.703H178.956L178.806 204.428ZM205.326 210.453V198.228H202.426V210.453H205.326ZM191.951 199.278L195.401 199.303C195.451 199.769 195.568 200.278 195.751 200.828C195.935 201.361 196.151 201.911 196.401 202.478C196.651 203.028 196.926 203.586 197.226 204.153C197.543 204.703 197.86 205.236 198.176 205.753C198.91 206.953 199.718 208.169 200.601 209.403H196.826C196.593 209.103 196.293 208.661 195.926 208.078C195.56 207.494 195.21 206.911 194.876 206.328C194.476 205.661 194.06 204.936 193.626 204.153C193.21 204.986 192.735 205.853 192.201 206.753C191.685 207.636 191.101 208.519 190.451 209.403H186.126C187.06 208.503 187.868 207.519 188.551 206.453C189.251 205.386 189.835 204.369 190.301 203.403C190.768 202.419 191.135 201.553 191.401 200.803C191.668 200.053 191.851 199.544 191.951 199.278ZM190.651 211.603H205.326V219.228H190.651V211.603ZM202.751 216.578V214.228H193.526V216.578H202.751ZM224.055 198.178H227.555V204.003H230.155V207.303H227.555V219.228H224.055V215.453H209.33V212.528H214.38V210.403H214.23C213.78 210.403 213.346 210.311 212.93 210.128C212.513 209.944 212.138 209.694 211.805 209.378C211.488 209.061 211.23 208.694 211.03 208.278C210.846 207.861 210.755 207.411 210.755 206.928V203.978C210.755 203.594 210.813 203.219 210.93 202.853C211.063 202.486 211.246 202.161 211.48 201.878H209.63V199.503H214.08V197.853H217.68V199.503H222.305V201.878H220.18C220.413 202.161 220.588 202.486 220.705 202.853C220.838 203.203 220.905 203.578 220.905 203.978V206.928C220.905 207.394 220.813 207.836 220.63 208.253C220.446 208.669 220.205 209.036 219.905 209.353C219.605 209.669 219.246 209.919 218.83 210.103C218.43 210.286 218.005 210.386 217.555 210.403V212.528H224.055V198.178ZM217.855 206.228V204.678C217.855 204.244 217.721 203.886 217.455 203.603C217.188 203.319 216.838 203.178 216.405 203.178H215.305C214.871 203.178 214.496 203.319 214.18 203.603C213.88 203.886 213.73 204.244 213.73 204.678V206.228C213.73 206.661 213.88 207.028 214.18 207.328C214.496 207.611 214.871 207.753 215.305 207.753H216.405C216.838 207.753 217.188 207.611 217.455 207.328C217.721 207.028 217.855 206.661 217.855 206.228ZM241.594 199.628H245.619V201.928H243.819C244.102 202.228 244.327 202.578 244.494 202.978C244.661 203.378 244.744 203.794 244.744 204.228V206.828C244.744 207.361 244.652 207.844 244.469 208.278C244.286 208.711 244.044 209.094 243.744 209.428C243.444 209.744 243.094 209.994 242.694 210.178C242.294 210.344 241.869 210.428 241.419 210.428H238.319C237.869 210.428 237.444 210.344 237.044 210.178C236.644 209.994 236.286 209.753 235.969 209.453C235.669 209.153 235.427 208.803 235.244 208.403C235.061 207.986 234.969 207.544 234.969 207.078V204.228C234.969 203.794 235.052 203.378 235.219 202.978C235.386 202.578 235.611 202.228 235.894 201.928H234.144V199.628H238.169V198.203H241.594V199.628ZM235.844 211.828H250.894V214.678C250.861 215.294 250.794 215.878 250.694 216.428C250.594 216.978 250.477 217.461 250.344 217.878C250.194 218.361 250.036 218.811 249.869 219.228H246.794C247.077 218.678 247.294 218.128 247.444 217.578C247.594 217.044 247.702 216.561 247.769 216.128C247.836 215.628 247.869 215.144 247.869 214.678H235.844V211.828ZM253.619 202.453V205.403H250.794V209.778H247.819V198.178H250.794V202.453H253.619ZM241.844 206.478V204.878C241.844 204.478 241.711 204.144 241.444 203.878C241.177 203.611 240.836 203.478 240.419 203.478H239.369C238.969 203.478 238.611 203.611 238.294 203.878C237.994 204.144 237.844 204.478 237.844 204.878V206.478C237.844 206.894 237.952 207.236 238.169 207.503C238.402 207.769 238.719 207.903 239.119 207.903H240.519C240.936 207.903 241.261 207.769 241.494 207.503C241.727 207.236 241.844 206.894 241.844 206.478ZM276.816 209.678H257.616V207.103H276.816V209.678ZM274.566 219.203H259.691V211.203H262.841V213.028H271.566V211.203H274.566V219.203ZM262.841 216.753H271.566V215.278H262.841V216.753ZM268.891 198.153V198.903C268.891 199.336 269.049 199.794 269.366 200.278C269.682 200.744 270.116 201.194 270.666 201.628C271.232 202.044 271.899 202.411 272.666 202.728C273.432 203.044 274.257 203.269 275.141 203.403V205.903C274.574 205.803 273.899 205.669 273.116 205.503C272.332 205.319 271.549 205.078 270.766 204.778C269.999 204.478 269.274 204.103 268.591 203.653C267.924 203.186 267.424 202.611 267.091 201.928C266.891 202.411 266.582 202.844 266.166 203.228C265.766 203.594 265.299 203.919 264.766 204.203C264.249 204.486 263.699 204.728 263.116 204.928C262.532 205.128 261.966 205.294 261.416 205.428C260.866 205.561 260.366 205.669 259.916 205.753C259.466 205.819 259.116 205.869 258.866 205.903V203.228C259.782 203.161 260.632 202.986 261.416 202.703C262.216 202.403 262.907 202.053 263.491 201.653C264.091 201.236 264.557 200.786 264.891 200.303C265.241 199.803 265.416 199.328 265.416 198.878V198.153H268.891ZM284.144 198.853C283.994 199.436 283.802 200.069 283.569 200.753C283.336 201.436 283.077 202.119 282.794 202.803C282.527 203.469 282.261 204.103 281.994 204.703H280.369C280.486 204.236 280.602 203.736 280.719 203.203C280.852 202.669 280.969 202.136 281.069 201.603C281.186 201.053 281.286 200.519 281.369 200.003C281.469 199.486 281.552 199.011 281.619 198.578H283.969L284.144 198.853ZM296.537 200.078H307.362V202.553C307.278 203.436 307.078 204.303 306.762 205.153C306.445 206.003 306.053 206.828 305.587 207.628C305.12 208.411 304.603 209.169 304.037 209.903C303.47 210.619 302.895 211.286 302.312 211.903C300.928 213.353 299.395 214.711 297.712 215.978V211.803C298.578 211.103 299.362 210.361 300.062 209.578C300.778 208.794 301.395 208.019 301.912 207.253C302.428 206.486 302.845 205.761 303.162 205.078C303.478 204.394 303.687 203.794 303.787 203.278H296.537V200.078ZM313.237 219.228V198.453H309.937V219.228H313.237ZM334.5 205.328H319.25V198.228H322.225V202.403H334.5V205.328ZM336.675 209.678H317.225V207.103H336.675V209.678ZM322.125 212.078H331.025C332.042 212.078 332.833 212.319 333.4 212.803C333.983 213.286 334.275 213.928 334.275 214.728V216.528C334.275 217.011 334.192 217.419 334.025 217.753C333.858 218.103 333.633 218.386 333.35 218.603C333.083 218.836 332.767 219.003 332.4 219.103C332.05 219.203 331.683 219.253 331.3 219.253H321.85C321.45 219.253 321.067 219.186 320.7 219.053C320.333 218.936 320.017 218.769 319.75 218.553C319.483 218.353 319.267 218.103 319.1 217.803C318.95 217.503 318.875 217.178 318.875 216.828V214.728C318.875 214.244 318.975 213.836 319.175 213.503C319.392 213.169 319.658 212.894 319.975 212.678C320.308 212.461 320.667 212.311 321.05 212.228C321.433 212.128 321.792 212.078 322.125 212.078ZM330.175 214.753H323.375C322.892 214.753 322.558 214.828 322.375 214.978C322.192 215.128 322.1 215.294 322.1 215.478V216.128C322.1 216.311 322.133 216.453 322.2 216.553C322.283 216.653 322.383 216.719 322.5 216.753C322.617 216.803 322.75 216.828 322.9 216.828C323.05 216.828 323.208 216.828 323.375 216.828H330.3C330.6 216.828 330.842 216.744 331.025 216.578C331.208 216.428 331.3 216.236 331.3 216.003V215.528C331.3 215.278 331.192 215.086 330.975 214.953C330.775 214.819 330.508 214.753 330.175 214.753ZM348.572 214.803H344.522C344.072 214.803 343.622 214.728 343.172 214.578C342.722 214.411 342.306 214.161 341.922 213.828C341.556 213.478 341.256 213.028 341.022 212.478C340.789 211.911 340.672 211.228 340.672 210.428V204.478C340.672 203.828 340.772 203.228 340.972 202.678C341.189 202.111 341.489 201.619 341.872 201.203C342.272 200.786 342.756 200.461 343.322 200.228C343.889 199.994 344.539 199.878 345.272 199.878H347.497C348.197 199.878 348.822 200.003 349.372 200.253C349.922 200.486 350.389 200.819 350.772 201.253C351.172 201.669 351.472 202.161 351.672 202.728C351.889 203.294 351.997 203.903 351.997 204.553V210.578C351.997 211.211 351.897 211.786 351.697 212.303C351.514 212.819 351.264 213.269 350.947 213.653C350.631 214.019 350.264 214.303 349.847 214.503C349.431 214.703 349.006 214.803 348.572 214.803ZM357.447 219.253V198.228H354.097V219.253H357.447ZM345.772 212.228H347.022C347.339 212.228 347.606 212.161 347.822 212.028C348.056 211.894 348.247 211.728 348.397 211.528C348.547 211.311 348.656 211.078 348.722 210.828C348.806 210.561 348.847 210.311 348.847 210.078V204.778C348.847 204.511 348.797 204.261 348.697 204.028C348.597 203.778 348.464 203.561 348.297 203.378C348.147 203.178 347.956 203.028 347.722 202.928C347.506 202.811 347.272 202.753 347.022 202.753H345.772C345.522 202.753 345.281 202.811 345.047 202.928C344.814 203.028 344.606 203.178 344.422 203.378C344.256 203.561 344.114 203.778 343.997 204.028C343.897 204.261 343.847 204.511 343.847 204.778V210.078C343.847 210.894 344.006 211.461 344.322 211.778C344.656 212.078 345.139 212.228 345.772 212.228ZM378.424 198.578H381.824V200.503H388.274V203.203H383.174C383.441 203.519 383.724 203.803 384.024 204.053C384.324 204.303 384.657 204.536 385.024 204.753C385.391 204.969 385.807 205.169 386.274 205.353C386.741 205.536 387.291 205.711 387.924 205.878V208.103C386.391 207.969 384.982 207.619 383.699 207.053C382.432 206.486 381.316 205.611 380.349 204.428C380.049 204.961 379.549 205.444 378.849 205.878C378.166 206.311 377.432 206.694 376.649 207.028C375.866 207.361 375.091 207.636 374.324 207.853C373.574 208.053 372.982 208.186 372.549 208.253V205.853C373.299 205.669 374.099 205.386 374.949 205.003C375.799 204.603 376.632 204.003 377.449 203.203H372.474V200.503H378.424V198.578ZM389.974 209.278V212.278H381.924V219.203H378.624V212.278H370.599V209.278H389.974ZM404.273 200.428V203.178C404.273 204.061 404.131 204.936 403.848 205.803C403.581 206.653 403.215 207.486 402.748 208.303C402.298 209.119 401.781 209.903 401.198 210.653C400.631 211.386 400.048 212.069 399.448 212.703C398.031 214.219 396.423 215.636 394.623 216.953V212.953C395.49 212.253 396.298 211.486 397.048 210.653C397.798 209.819 398.448 208.986 398.998 208.153C399.565 207.303 400.006 206.478 400.323 205.678C400.656 204.878 400.84 204.161 400.873 203.528H393.973V200.428H404.273ZM413.473 205.228V208.453H410.348V219.003H407.073V198.478H410.348V205.228H413.473ZM421.719 202.303V206.778H430.119V209.403H426.319V212.528H432.194V198.228H435.669V219.253H432.194V215.478H417.469V212.528H423.244V209.403H418.519V199.428H429.894V202.303H421.719ZM446.346 199.278C446.78 199.278 447.188 199.369 447.571 199.553C447.971 199.719 448.321 199.953 448.621 200.253C448.921 200.553 449.155 200.911 449.321 201.328C449.505 201.728 449.596 202.153 449.596 202.603V206.203C449.596 206.669 449.505 207.111 449.321 207.528C449.155 207.928 448.921 208.286 448.621 208.603C448.321 208.903 447.971 209.144 447.571 209.328C447.188 209.494 446.78 209.578 446.346 209.578H443.046C442.596 209.578 442.171 209.494 441.771 209.328C441.371 209.144 441.013 208.903 440.696 208.603C440.38 208.286 440.13 207.928 439.946 207.528C439.763 207.111 439.671 206.669 439.671 206.203V202.603C439.671 202.153 439.763 201.728 439.946 201.328C440.13 200.911 440.38 200.553 440.696 200.253C441.013 199.953 441.371 199.719 441.771 199.553C442.171 199.369 442.596 199.278 443.046 199.278H446.346ZM454.196 211.528C454.296 212.278 454.571 213.094 455.021 213.978C455.471 214.861 455.946 215.694 456.446 216.478C457.03 217.394 457.688 218.311 458.421 219.228H455.346C454.846 218.628 454.38 218.036 453.946 217.453C453.513 216.869 453.113 216.178 452.746 215.378C452.68 215.611 452.563 215.886 452.396 216.203C452.246 216.519 452.063 216.853 451.846 217.203C451.646 217.553 451.413 217.903 451.146 218.253C450.896 218.603 450.63 218.928 450.346 219.228H446.996C447.346 218.944 447.605 218.678 447.771 218.428C447.938 218.194 448.146 217.903 448.396 217.553C447.946 217.003 447.588 216.519 447.321 216.103C447.071 215.686 446.93 215.453 446.896 215.403C446.73 215.936 446.396 216.553 445.896 217.253C445.396 217.969 444.88 218.636 444.346 219.253H440.871C441.538 218.569 442.13 217.853 442.646 217.103C443.18 216.369 443.638 215.653 444.021 214.953C444.405 214.253 444.713 213.603 444.946 213.003C445.18 212.403 445.338 211.903 445.421 211.503H448.346C448.396 211.869 448.455 212.211 448.521 212.528C448.605 212.844 448.705 213.161 448.821 213.478C448.955 213.778 449.105 214.094 449.271 214.428C449.438 214.744 449.646 215.086 449.896 215.453C450.08 215.103 450.246 214.744 450.396 214.378C450.563 214.011 450.705 213.653 450.821 213.303C450.938 212.953 451.03 212.628 451.096 212.328C451.18 212.011 451.246 211.744 451.296 211.528H454.196ZM457.371 198.203V210.303H454.246V205.703H450.896V202.828H454.246V198.203H457.371ZM446.721 203.278C446.721 202.861 446.58 202.519 446.296 202.253C446.03 201.986 445.696 201.853 445.296 201.853H444.071C443.671 201.853 443.313 201.986 442.996 202.253C442.696 202.519 442.546 202.861 442.546 203.278V205.553C442.546 205.969 442.696 206.311 442.996 206.578C443.313 206.844 443.671 206.978 444.071 206.978H445.296C445.696 206.978 446.03 206.844 446.296 206.578C446.58 206.311 446.721 205.969 446.721 205.553V203.278ZM481.611 209.678H462.411V207.103H481.611V209.678ZM479.361 219.203H464.486V211.203H467.636V213.028H476.361V211.203H479.361V219.203ZM467.636 216.753H476.361V215.278H467.636V216.753ZM473.686 198.153V198.903C473.686 199.336 473.844 199.794 474.161 200.278C474.477 200.744 474.911 201.194 475.461 201.628C476.027 202.044 476.694 202.411 477.461 202.728C478.227 203.044 479.052 203.269 479.936 203.403V205.903C479.369 205.803 478.694 205.669 477.911 205.503C477.127 205.319 476.344 205.078 475.561 204.778C474.794 204.478 474.069 204.103 473.386 203.653C472.719 203.186 472.219 202.611 471.886 201.928C471.686 202.411 471.377 202.844 470.961 203.228C470.561 203.594 470.094 203.919 469.561 204.203C469.044 204.486 468.494 204.728 467.911 204.928C467.327 205.128 466.761 205.294 466.211 205.428C465.661 205.561 465.161 205.669 464.711 205.753C464.261 205.819 463.911 205.869 463.661 205.903V203.228C464.577 203.161 465.427 202.986 466.211 202.703C467.011 202.403 467.702 202.053 468.286 201.653C468.886 201.236 469.352 200.786 469.686 200.303C470.036 199.803 470.211 199.328 470.211 198.878V198.153H473.686ZM485.614 214.328V200.528H488.814V211.053H496.314V214.328H485.614ZM501.264 219.228H497.964V198.203H501.264V219.228ZM508.477 203.378V211.603H516.302V214.803H505.252V200.453H515.802V203.378H508.477ZM523.752 205.228V208.428H520.877V219.228H517.677V198.453H520.877V205.228H523.752ZM529.448 199.453H533.173V213.403H529.448V199.453ZM533.023 215.653V218.678H529.648V215.653H533.023Z" fill="black"/>
</svg>
