<svg width="83" height="82" viewBox="0 0 83 82" fill="none" xmlns="http://www.w3.org/2000/svg">
<g id="fxemoji:lightbulb">
<path id="Vector" d="M66.2883 29.5994C66.2883 15.7346 55.2758 4.49512 41.6914 4.49512C28.107 4.49512 17.0945 15.7348 17.0945 29.5994C17.0945 35.8692 19.3467 41.6019 23.0701 46.0013H23.0699L28.4501 55.6393C29.8553 58.2103 30.3769 59.8705 32.7317 59.8705H50.2746C52.6296 59.8705 53.3223 58.1222 54.5562 55.6393L60.3129 46.0013H60.3125C64.0359 41.6019 66.2883 35.8692 66.2883 29.5994Z" fill="#FFE46A"/>
<path id="Vector_2" d="M18.6161 32.6568C18.6161 18.3293 29.5436 6.48771 43.7296 4.58972C43.0218 4.5272 42.3116 4.49564 41.6011 4.49512C28.0166 4.49512 17.0042 15.7348 17.0042 29.5994C17.0042 34.162 18.1978 38.4393 20.2822 42.1262C19.2034 39.1652 18.6161 35.9777 18.6161 32.6568Z" fill="#FFF0B7"/>
<path id="Vector_3" d="M66.2884 29.6527C66.2884 24.6866 64.8752 20.0577 62.4375 16.1611C62.9593 18.1959 63.2233 20.2869 63.2232 22.3861C63.2232 38.8824 47.0604 52.3172 26.8696 52.8612L28.4501 55.6927C29.8553 58.2638 30.377 59.924 32.7318 59.924H50.2747C52.6296 59.924 53.3224 58.1757 54.5563 55.6927L60.313 46.0548H60.3126C64.036 41.6552 66.2884 35.9225 66.2884 29.6527Z" fill="#FFDA00"/>
<path id="Vector_4" d="M52.0322 33.9069C52.056 33.8862 52.0797 33.8673 52.1037 33.8445C52.549 33.4233 52.9158 32.7515 52.6088 32.1283C51.3497 29.5736 47.4997 28.7631 44.6944 29.6092C44.5523 29.652 44.4146 29.6986 44.2808 29.7489C42.7527 28.8672 40.8555 28.6553 39.1668 29.1853C38.9669 29.2479 38.7706 29.3214 38.579 29.4054C37.6545 28.8716 36.5731 28.6054 35.4956 28.7083C33.2404 28.9239 31.2806 30.7314 30.8923 32.9333L30.7146 33.0419C32.2515 35.4963 36.2967 42.5289 36.556 45.5551C36.8828 49.3729 36.5563 59.7361 36.5529 59.8403L38.4697 59.9002C38.4834 59.4701 38.803 49.3224 38.4666 45.3953C38.3167 43.6443 37.2326 40.8536 35.2442 37.1007C34.3162 35.349 33.4152 33.811 32.8698 32.9036C33.2469 31.6961 34.4056 30.7166 35.6802 30.5948C36.0684 30.5577 36.4621 30.6007 36.839 30.7099C36.6972 30.8894 36.573 31.0818 36.4682 31.2845C35.8215 32.5377 36.0917 34.1111 37.0967 34.9447C37.692 35.4382 38.5569 35.62 39.3544 35.4184C40.097 35.2308 40.671 34.7485 40.9291 34.0952C41.161 33.508 41.1414 32.8301 40.8705 32.0806C40.7137 31.6494 40.4958 31.2424 40.2233 30.8717C40.947 30.7341 41.694 30.7744 42.3983 30.9892C42.1242 31.3011 41.9145 31.6482 41.7766 32.0245C41.4819 32.8301 41.6122 33.7875 42.1167 34.5233C42.5515 35.1575 43.2123 35.5345 43.9302 35.5579C43.9542 35.5587 43.9783 35.5592 44.0021 35.5592C44.631 35.5592 45.2279 35.2919 45.69 34.8016C46.2329 34.2256 46.5092 33.426 46.429 32.6626C46.378 32.1773 46.2033 31.7025 45.9221 31.2622C47.8775 30.9111 49.7902 31.564 50.6177 32.555C50.1183 33.3763 49.0928 35.0993 48.0323 37.101C46.0442 40.8541 44.9597 43.6448 44.81 45.3956C44.4737 49.3227 44.7933 59.4704 44.8069 59.9005L46.7237 59.8406C46.7203 59.7364 46.3938 49.3739 46.7206 45.5555C46.9538 42.831 50.2545 36.8621 52.0322 33.9069ZM39.1425 33.4061C39.0979 33.5192 38.9298 33.5696 38.8793 33.5824C38.6795 33.6327 38.4534 33.5959 38.3292 33.4931C38.0072 33.2261 37.9372 32.6089 38.1763 32.1457C38.2547 31.9965 38.3543 31.8592 38.4719 31.7377C38.7294 32.0264 38.9341 32.3578 39.0643 32.7182C39.1706 33.0119 39.199 33.2629 39.1425 33.4061ZM44.2867 33.5094C44.2306 33.5686 44.1165 33.6661 43.9928 33.6635C43.86 33.6593 43.7549 33.5342 43.7039 33.46C43.5452 33.2283 43.4942 32.9029 43.5799 32.6689C43.6787 32.3988 43.8693 32.1779 44.0918 32.0001C44.3395 32.2766 44.4915 32.574 44.5213 32.8583C44.5443 33.0748 44.4499 33.3363 44.2867 33.5094Z" fill="#FAAF63"/>
<path id="Vector_5" d="M51.0777 64.1504H32.2146C31.1598 64.1504 30.2969 65.0032 30.2969 66.0455V67.1443C30.2969 68.1866 31.1598 69.0394 32.2146 69.0394H38.3068C36.4903 69.7073 34.5723 71.2954 34.5723 73.137V73.8762C36.0302 75.4956 37.3879 78.311 39.9741 78.311H43.4724C45.5096 78.311 46.9569 76.1375 48.7199 73.8762V73.137C48.7199 71.2954 46.8899 69.7073 45.1165 69.0394H51.0777C52.1324 69.0394 52.9954 68.1866 52.9954 67.1443V66.0455C52.9954 65.0032 52.1324 64.1504 51.0777 64.1504Z" fill="#6B83A5"/>
<path id="Vector_6" d="M52.4319 64.1498H30.8603C29.8056 64.1498 28.9426 63.2969 28.9426 62.2546V61.1559C28.9426 60.1136 29.8056 59.2607 30.8603 59.2607H52.4319C53.4866 59.2607 54.3496 60.1136 54.3496 61.1559V62.2546C54.3496 63.2969 53.4866 64.1498 52.4319 64.1498ZM51.3121 72.0328V70.9341C51.3121 69.8918 50.4491 69.0389 49.3944 69.0389H33.8978C32.8431 69.0389 31.9801 69.8918 31.9801 70.9341V72.0328C31.9801 73.0751 32.8431 73.928 33.8978 73.928H49.3944C50.4491 73.928 51.3121 73.0751 51.3121 72.0328Z" fill="#ABBDDB"/>
</g>
</svg>
