<svg width="44" height="43" viewBox="0 0 44 43" fill="none" xmlns="http://www.w3.org/2000/svg">
<g id="logout icon" clip-path="url(#clip0_574_308)">
<path id="Union" fill-rule="evenodd" clip-rule="evenodd" d="M4.31074 2.67383H3.56226V3.41174V40.7033V41.4412H4.31074H28.9495H29.698V40.7033V28.6087C29.698 28.2012 29.3629 27.8708 28.9495 27.8708C28.5361 27.8708 28.201 28.2012 28.201 28.6087V39.9654H5.05922V4.14965H28.201V16.5142C28.201 16.9217 28.5361 17.2521 28.9495 17.2521C29.3629 17.2521 29.698 16.9217 29.698 16.5142V3.41174V2.67383H28.9495H4.31074ZM35.6373 15.9913C35.3444 15.7037 34.8705 15.7047 34.5788 15.9935C34.2871 16.2823 34.2881 16.7495 34.581 17.037L40.2081 22.5614L34.581 28.0858C34.2881 28.3734 34.2871 28.8406 34.5788 29.1294C34.8705 29.4182 35.3444 29.4192 35.6373 29.1316L41.797 23.0843L42.3296 22.5614L41.797 22.0386L35.6373 15.9913Z" fill="white" stroke="white" stroke-width="3" stroke-linecap="round"/>
<path id="Vector 4 (Stroke)" fill-rule="evenodd" clip-rule="evenodd" d="M14.2568 22.0571C14.2568 21.6879 14.5913 21.3887 15.0039 21.3887L38.9091 21.3887C39.3217 21.3887 39.6561 21.6879 39.6561 22.0571C39.6561 22.4262 39.3217 22.7255 38.9091 22.7255L15.0039 22.7255C14.5913 22.7255 14.2568 22.4262 14.2568 22.0571Z" fill="white" stroke="white" stroke-width="3" stroke-linecap="round"/>
</g>
<defs>
<clipPath id="clip0_574_308">
<rect width="42.7778" height="42.7778" fill="white" transform="translate(0.888672)"/>
</clipPath>
</defs>
</svg>
