<svg width="733" height="305" viewBox="0 0 733 305" fill="none" xmlns="http://www.w3.org/2000/svg">
<rect width="733" height="305" rx="20" fill="#BADEFF"/>
<path d="M142.613 133.052H163.997V144.068H142.613V133.052ZM152.585 115.592V118.94C152.585 119.204 152.573 119.456 152.549 119.696C152.549 119.936 152.537 120.188 152.513 120.452C152.489 120.692 152.465 120.932 152.441 121.172C152.417 121.388 152.381 121.616 152.333 121.856C152.333 121.976 152.309 122.132 152.261 122.324C152.237 122.396 152.225 122.468 152.225 122.54C152.225 122.612 152.213 122.684 152.189 122.756C152.117 123.068 152.045 123.368 151.973 123.656C151.901 123.92 151.829 124.184 151.757 124.448C151.733 124.52 151.709 124.592 151.685 124.664C151.661 124.736 151.637 124.796 151.613 124.844C151.397 125.492 151.181 126.104 150.965 126.68C150.893 126.848 150.821 127.016 150.749 127.184C150.677 127.328 150.605 127.472 150.533 127.616C150.317 128.072 150.101 128.48 149.885 128.84C149.693 129.176 149.513 129.476 149.345 129.74C149.153 130.028 149.009 130.244 148.913 130.388C148.889 130.46 148.853 130.52 148.805 130.568L148.769 130.604H143.801C143.849 130.556 143.885 130.508 143.909 130.46C143.957 130.388 144.005 130.328 144.053 130.28C144.125 130.16 144.197 130.052 144.269 129.956C144.365 129.836 144.449 129.716 144.521 129.596C144.593 129.476 144.665 129.368 144.737 129.272C144.809 129.152 144.869 129.032 144.917 128.912L145.133 128.588C145.181 128.468 145.241 128.36 145.313 128.264C145.385 128.168 145.445 128.06 145.493 127.94C145.781 127.388 146.021 126.848 146.213 126.32C146.429 125.792 146.621 125.288 146.789 124.808C146.813 124.688 146.837 124.592 146.861 124.52C146.885 124.424 146.921 124.316 146.969 124.196C146.993 124.1 147.017 124.016 147.041 123.944C147.065 123.848 147.089 123.752 147.113 123.656C147.185 123.272 147.257 122.912 147.329 122.576C147.401 122.096 147.449 121.652 147.473 121.244C147.521 120.836 147.557 120.452 147.581 120.092V119.552H137.861V115.592H152.585ZM159.389 113.72H163.889V131.36H159.389V124.7H154.133V120.524H159.389V113.72ZM159.713 140.324V136.652H146.897V140.324H159.713ZM175.81 115.34L180.778 115.376C180.85 116.024 180.982 116.732 181.174 117.5C181.39 118.244 181.63 119.012 181.894 119.804C182.158 120.596 182.434 121.388 182.722 122.18C183.034 122.948 183.346 123.692 183.658 124.412C184.378 126.092 185.158 127.784 185.998 129.488H181.21C180.994 129.056 180.742 128.552 180.454 127.976C180.19 127.376 179.914 126.752 179.626 126.104C179.338 125.456 179.062 124.796 178.798 124.124C178.558 123.452 178.366 122.816 178.222 122.216C177.91 123.44 177.466 124.7 176.89 125.996C176.314 127.268 175.678 128.432 174.982 129.488H169.762C170.746 128.288 171.598 126.992 172.318 125.6C173.038 124.208 173.638 122.864 174.118 121.568C174.598 120.248 174.97 119.036 175.234 117.932C175.522 116.828 175.714 115.964 175.81 115.34ZM193.666 113.756H197.77V131.972H193.666V125.168H191.002V131.972H186.646V113.756H191.002V121.712H193.666V113.756ZM175.99 133.7H197.734V137.516C197.734 138.428 197.65 139.292 197.482 140.108C197.314 140.948 197.134 141.68 196.942 142.304C196.702 143.048 196.438 143.744 196.15 144.392H191.362C191.77 143.576 192.082 142.76 192.298 141.944C192.514 141.128 192.67 140.396 192.766 139.748C192.862 138.98 192.91 138.26 192.91 137.588H175.99V133.7ZM240.243 115.592V119.156C240.243 121.7 240.063 123.92 239.703 125.816C239.367 127.688 238.995 129.248 238.587 130.496C238.107 131.984 237.555 133.232 236.931 134.24H232.251C232.995 132.848 233.571 131.444 233.979 130.028C234.411 128.588 234.711 127.232 234.879 125.96C235.071 124.664 235.167 123.5 235.167 122.468C235.191 121.412 235.167 120.56 235.095 119.912H218.283V115.592H240.243ZM241.863 139.676H216.267V135.5H220.911V128.516H224.619V135.5H227.859V128.516H231.459V135.5H241.863V139.676ZM250.412 133.52H254.48V130.568H247.64V126.644H274.604V130.568H268.016V133.52H272.228V136.94C272.204 137.828 272.108 138.668 271.94 139.46C271.796 140.252 271.628 140.948 271.436 141.548C271.22 142.244 270.98 142.892 270.716 143.492H266.288C266.696 142.7 267.008 141.944 267.224 141.224C267.44 140.528 267.596 139.916 267.692 139.388C267.788 138.764 267.836 138.188 267.836 137.66H250.412V133.52ZM266.54 113.36C267.116 113.36 267.74 113.468 268.412 113.684C269.084 113.876 269.708 114.188 270.284 114.62C270.86 115.028 271.328 115.532 271.688 116.132C272.072 116.732 272.264 117.428 272.264 118.22V120.488C272.264 121.208 272.108 121.856 271.796 122.432C271.508 123.008 271.088 123.5 270.536 123.908C270.008 124.292 269.372 124.592 268.628 124.808C267.908 125 267.116 125.096 266.252 125.096H256.316C255.596 125.096 254.888 124.988 254.192 124.772C253.52 124.532 252.908 124.22 252.356 123.836C251.828 123.428 251.396 122.972 251.06 122.468C250.748 121.94 250.592 121.376 250.592 120.776V117.932C250.592 117.188 250.76 116.54 251.096 115.988C251.456 115.412 251.9 114.932 252.428 114.548C252.98 114.164 253.568 113.876 254.192 113.684C254.84 113.468 255.452 113.36 256.028 113.36H266.54ZM257.144 121.64H265.676C266.396 121.64 266.948 121.4 267.332 120.92C267.74 120.44 267.944 119.924 267.944 119.372C267.944 118.796 267.74 118.268 267.332 117.788C266.948 117.308 266.396 117.068 265.676 117.068H257.144C256.448 117.068 255.896 117.308 255.488 117.788C255.104 118.268 254.912 118.796 254.912 119.372C254.912 119.924 255.104 120.44 255.488 120.92C255.896 121.4 256.448 121.64 257.144 121.64ZM259.016 133.52H263.48V130.568H259.016V133.52ZM299.286 113.36C299.862 113.36 300.486 113.468 301.158 113.684C301.83 113.876 302.454 114.188 303.03 114.62C303.606 115.028 304.074 115.532 304.434 116.132C304.818 116.732 305.01 117.428 305.01 118.22V120.488C305.01 121.208 304.854 121.856 304.542 122.432C304.254 123.008 303.834 123.5 303.282 123.908C302.754 124.292 302.118 124.592 301.374 124.808C300.654 125 299.862 125.096 298.998 125.096H289.062C288.342 125.096 287.634 124.988 286.938 124.772C286.266 124.532 285.654 124.22 285.102 123.836C284.574 123.428 284.142 122.972 283.806 122.468C283.494 121.94 283.338 121.376 283.338 120.776V117.932C283.338 117.188 283.506 116.54 283.842 115.988C284.202 115.412 284.646 114.932 285.174 114.548C285.726 114.164 286.314 113.876 286.938 113.684C287.586 113.468 288.198 113.36 288.774 113.36H299.286ZM283.59 136.328H299.214V134.672H283.59V131.792H304.326V139.784H287.838V141.26H304.686V144.392H283.59V136.328ZM307.71 130.244H280.35V126.5H307.71V130.244ZM298.422 121.64C299.142 121.64 299.694 121.4 300.078 120.92C300.486 120.44 300.69 119.924 300.69 119.372C300.69 118.796 300.486 118.268 300.078 117.788C299.694 117.308 299.142 117.068 298.422 117.068H289.89C289.194 117.068 288.642 117.308 288.234 117.788C287.85 118.268 287.658 118.796 287.658 119.372C287.658 119.924 287.85 120.44 288.234 120.92C288.642 121.4 289.194 121.64 289.89 121.64H298.422ZM342.637 127.688H354.013V131.864H326.221V127.688H338.029V125.312H329.389V113.792H350.881V116.708H334.141V118.112H350.881V121.46H334.141V122.792H350.881V125.312H342.637V127.688ZM333.529 133.736H346.345C347.809 133.736 348.949 134.084 349.765 134.78C350.605 135.476 351.025 136.4 351.025 137.552V140.144C351.025 140.84 350.905 141.428 350.665 141.908C350.425 142.412 350.101 142.82 349.693 143.132C349.309 143.468 348.853 143.708 348.325 143.852C347.821 143.996 347.293 144.068 346.741 144.068H333.133C332.557 144.068 332.005 143.972 331.477 143.78C330.949 143.612 330.493 143.372 330.109 143.06C329.725 142.772 329.413 142.412 329.173 141.98C328.957 141.548 328.849 141.08 328.849 140.576V137.552C328.849 136.856 328.993 136.268 329.281 135.788C329.593 135.308 329.977 134.912 330.433 134.6C330.913 134.288 331.429 134.072 331.981 133.952C332.533 133.808 333.049 133.736 333.529 133.736ZM345.121 137.588H335.329C334.633 137.588 334.153 137.696 333.889 137.912C333.625 138.128 333.493 138.368 333.493 138.632V139.568C333.493 139.832 333.541 140.036 333.637 140.18C333.757 140.324 333.901 140.42 334.069 140.468C334.237 140.54 334.429 140.576 334.645 140.576C334.861 140.576 335.089 140.576 335.329 140.576H345.301C345.733 140.576 346.081 140.456 346.345 140.216C346.609 140 346.741 139.724 346.741 139.388V138.704C346.741 138.344 346.585 138.068 346.273 137.876C345.985 137.684 345.601 137.588 345.121 137.588ZM374.463 116.78V120.596H372.231C372.783 121.004 373.215 121.532 373.527 122.18C373.863 122.804 374.031 123.548 374.031 124.412V129.668C374.031 130.412 373.911 131.12 373.671 131.792C373.455 132.464 373.143 133.064 372.735 133.592C372.327 134.096 371.847 134.504 371.295 134.816C370.743 135.104 370.143 135.248 369.495 135.248H364.851C364.203 135.248 363.567 135.104 362.943 134.816C362.343 134.504 361.803 134.096 361.323 133.592C360.867 133.064 360.495 132.464 360.207 131.792C359.919 131.12 359.775 130.412 359.775 129.668V124.412C359.775 123.548 359.967 122.804 360.351 122.18C360.759 121.532 361.275 121.004 361.899 120.596H359.775V116.78H364.815V114.26H369.855V116.78H374.463ZM370.251 128.984V125.744C370.251 125.096 370.047 124.496 369.639 123.944C369.231 123.368 368.727 123.08 368.127 123.08H366.327C366.039 123.08 365.751 123.164 365.463 123.332C365.175 123.476 364.911 123.68 364.671 123.944C364.455 124.184 364.275 124.472 364.131 124.808C364.011 125.12 363.951 125.432 363.951 125.744V128.984C363.951 129.632 364.191 130.136 364.671 130.496C365.175 130.856 365.727 131.036 366.327 131.036H368.127C368.727 131.036 369.231 130.856 369.639 130.496C370.047 130.136 370.251 129.632 370.251 128.984ZM383.103 114.08H386.955V143.708H383.103V128.048H380.259V143.708H376.083V114.08H380.259V123.836H383.103V114.08ZM410.223 133.052H431.607V144.068H410.223V133.052ZM420.195 115.592V118.94C420.195 119.204 420.183 119.456 420.159 119.696C420.159 119.936 420.147 120.188 420.123 120.452C420.099 120.692 420.075 120.932 420.051 121.172C420.027 121.388 419.991 121.616 419.943 121.856C419.943 121.976 419.919 122.132 419.871 122.324C419.847 122.396 419.835 122.468 419.835 122.54C419.835 122.612 419.823 122.684 419.799 122.756C419.727 123.068 419.655 123.368 419.583 123.656C419.511 123.92 419.439 124.184 419.367 124.448C419.343 124.52 419.319 124.592 419.295 124.664C419.271 124.736 419.247 124.796 419.223 124.844C419.007 125.492 418.791 126.104 418.575 126.68C418.503 126.848 418.431 127.016 418.359 127.184C418.287 127.328 418.215 127.472 418.143 127.616C417.927 128.072 417.711 128.48 417.495 128.84C417.303 129.176 417.123 129.476 416.955 129.74C416.763 130.028 416.619 130.244 416.523 130.388C416.499 130.46 416.463 130.52 416.415 130.568L416.379 130.604H411.411C411.459 130.556 411.495 130.508 411.519 130.46C411.567 130.388 411.615 130.328 411.663 130.28C411.735 130.16 411.807 130.052 411.879 129.956C411.975 129.836 412.059 129.716 412.131 129.596C412.203 129.476 412.275 129.368 412.347 129.272C412.419 129.152 412.479 129.032 412.527 128.912L412.743 128.588C412.791 128.468 412.851 128.36 412.923 128.264C412.995 128.168 413.055 128.06 413.103 127.94C413.391 127.388 413.631 126.848 413.823 126.32C414.039 125.792 414.231 125.288 414.399 124.808C414.423 124.688 414.447 124.592 414.471 124.52C414.495 124.424 414.531 124.316 414.579 124.196C414.603 124.1 414.627 124.016 414.651 123.944C414.675 123.848 414.699 123.752 414.723 123.656C414.795 123.272 414.867 122.912 414.939 122.576C415.011 122.096 415.059 121.652 415.083 121.244C415.131 120.836 415.167 120.452 415.191 120.092V119.552H405.471V115.592H420.195ZM426.999 113.72H431.499V131.36H426.999V124.7H421.743V120.524H426.999V113.72ZM427.323 140.324V136.652H414.507V140.324H427.323ZM443.419 115.34L448.387 115.376C448.459 116.024 448.591 116.732 448.783 117.5C448.999 118.244 449.239 119.012 449.503 119.804C449.767 120.596 450.043 121.388 450.331 122.18C450.643 122.948 450.955 123.692 451.267 124.412C451.987 126.092 452.767 127.784 453.607 129.488H448.819C448.603 129.056 448.351 128.552 448.063 127.976C447.799 127.376 447.523 126.752 447.235 126.104C446.947 125.456 446.671 124.796 446.407 124.124C446.167 123.452 445.975 122.816 445.831 122.216C445.519 123.44 445.075 124.7 444.499 125.996C443.923 127.268 443.287 128.432 442.591 129.488H437.371C438.355 128.288 439.207 126.992 439.927 125.6C440.647 124.208 441.247 122.864 441.727 121.568C442.207 120.248 442.579 119.036 442.843 117.932C443.131 116.828 443.323 115.964 443.419 115.34ZM461.275 113.756H465.379V131.972H461.275V125.168H458.611V131.972H454.255V113.756H458.611V121.712H461.275V113.756ZM443.599 133.7H465.343V137.516C465.343 138.428 465.259 139.292 465.091 140.108C464.923 140.948 464.743 141.68 464.551 142.304C464.311 143.048 464.047 143.744 463.759 144.392H458.971C459.379 143.576 459.691 142.76 459.907 141.944C460.123 141.128 460.279 140.396 460.375 139.748C460.471 138.98 460.519 138.26 460.519 137.588H443.599V133.7ZM508.752 124.016H486.792V113.792H491.076V119.804H508.752V124.016ZM511.884 130.28H483.876V126.572H511.884V130.28ZM490.932 133.736H503.748C505.212 133.736 506.352 134.084 507.168 134.78C508.008 135.476 508.428 136.4 508.428 137.552V140.144C508.428 140.84 508.308 141.428 508.068 141.908C507.828 142.412 507.504 142.82 507.096 143.132C506.712 143.468 506.256 143.708 505.728 143.852C505.224 143.996 504.696 144.068 504.144 144.068H490.536C489.96 144.068 489.408 143.972 488.88 143.78C488.352 143.612 487.896 143.372 487.512 143.06C487.128 142.772 486.816 142.412 486.576 141.98C486.36 141.548 486.252 141.08 486.252 140.576V137.552C486.252 136.856 486.396 136.268 486.684 135.788C486.996 135.308 487.38 134.912 487.836 134.6C488.316 134.288 488.832 134.072 489.384 133.952C489.936 133.808 490.452 133.736 490.932 133.736ZM502.524 137.588H492.732C492.036 137.588 491.556 137.696 491.292 137.912C491.028 138.128 490.896 138.368 490.896 138.632V139.568C490.896 139.832 490.944 140.036 491.04 140.18C491.16 140.324 491.304 140.42 491.472 140.468C491.64 140.54 491.832 140.576 492.048 140.576C492.264 140.576 492.492 140.576 492.732 140.576H502.704C503.136 140.576 503.484 140.456 503.748 140.216C504.012 140 504.144 139.724 504.144 139.388V138.704C504.144 138.344 503.988 138.068 503.676 137.876C503.388 137.684 503.004 137.588 502.524 137.588ZM532.508 126.608V130.28H517.64V121.244H529.196V119.156H517.64V115.484H532.508V124.124H521.384V126.608H532.508ZM543.02 133.556V137.624C543.02 138.488 542.936 139.304 542.768 140.072C542.624 140.864 542.456 141.56 542.264 142.16C542.024 142.856 541.772 143.492 541.508 144.068H537.188C537.596 143.3 537.896 142.532 538.088 141.764C538.304 140.996 538.46 140.3 538.556 139.676C538.652 138.956 538.688 138.272 538.664 137.624H521.564V133.556H543.02ZM542.876 113.792V131.324H538.628V127.04H534.812V123.44H538.628V120.956H534.848V117.356H538.628V113.792H542.876ZM567.704 113.36C568.28 113.36 568.904 113.468 569.576 113.684C570.248 113.876 570.872 114.188 571.448 114.62C572.024 115.028 572.492 115.532 572.852 116.132C573.236 116.732 573.428 117.428 573.428 118.22V120.488C573.428 121.208 573.272 121.856 572.96 122.432C572.672 123.008 572.252 123.5 571.7 123.908C571.172 124.292 570.536 124.592 569.792 124.808C569.072 125 568.28 125.096 567.416 125.096H557.48C556.76 125.096 556.052 124.988 555.356 124.772C554.684 124.532 554.072 124.22 553.52 123.836C552.992 123.428 552.56 122.972 552.224 122.468C551.912 121.94 551.756 121.376 551.756 120.776V117.932C551.756 117.188 551.924 116.54 552.26 115.988C552.62 115.412 553.064 114.932 553.592 114.548C554.144 114.164 554.732 113.876 555.356 113.684C556.004 113.468 556.616 113.36 557.191 113.36H567.704ZM552.008 136.328H567.632V134.672H552.008V131.792H572.744V139.784H556.256V141.26H573.104V144.392H552.008V136.328ZM576.128 130.244H548.768V126.5H576.128V130.244ZM566.84 121.64C567.56 121.64 568.112 121.4 568.496 120.92C568.904 120.44 569.108 119.924 569.108 119.372C569.108 118.796 568.904 118.268 568.496 117.788C568.112 117.308 567.56 117.068 566.84 117.068H558.308C557.612 117.068 557.06 117.308 556.652 117.788C556.268 118.268 556.076 118.796 556.076 119.372C556.076 119.924 556.268 120.44 556.652 120.92C557.06 121.4 557.612 121.64 558.308 121.64H566.84ZM239.113 161.808H244.909V165.12H242.317C242.725 165.552 243.049 166.056 243.289 166.632C243.529 167.208 243.649 167.808 243.649 168.432V172.176C243.649 172.944 243.517 173.64 243.253 174.264C242.989 174.888 242.641 175.44 242.209 175.92C241.777 176.376 241.273 176.736 240.697 177C240.121 177.24 239.509 177.36 238.861 177.36H234.397C233.749 177.36 233.137 177.24 232.561 177C231.985 176.736 231.469 176.388 231.013 175.956C230.581 175.524 230.233 175.02 229.969 174.444C229.705 173.844 229.573 173.208 229.573 172.536V168.432C229.573 167.808 229.693 167.208 229.933 166.632C230.173 166.056 230.497 165.552 230.905 165.12H228.385V161.808H234.181V159.756H239.113V161.808ZM235.585 179.772H248.005C248.653 179.772 249.253 179.856 249.805 180.024C250.357 180.168 250.837 180.408 251.245 180.744C251.677 181.056 252.013 181.464 252.253 181.968C252.493 182.448 252.613 183.012 252.613 183.66V186.252C252.613 186.756 252.505 187.236 252.289 187.692C252.097 188.148 251.821 188.556 251.461 188.916C251.125 189.276 250.717 189.552 250.237 189.744C249.757 189.96 249.241 190.068 248.689 190.068H234.505C233.353 190.068 232.405 189.708 231.661 188.988C230.917 188.268 230.545 187.296 230.545 186.072V183.516C230.545 182.148 231.001 181.188 231.913 180.636C232.825 180.06 234.049 179.772 235.585 179.772ZM256.177 169.476V173.724H252.037V178.116H247.825V159.72H252.037V163.176H256.213V167.064H252.037V169.476H256.177ZM248.365 185.496V184.74C248.365 184.452 248.233 184.2 247.969 183.984C247.729 183.744 247.441 183.624 247.105 183.624H236.701C236.005 183.624 235.573 183.744 235.405 183.984C235.261 184.224 235.189 184.464 235.189 184.704V185.604C235.189 185.964 235.321 186.216 235.585 186.36C235.849 186.504 236.221 186.576 236.701 186.576H247.141C247.957 186.576 248.365 186.216 248.365 185.496ZM239.473 171.672V169.368C239.473 168.792 239.281 168.312 238.897 167.928C238.513 167.544 238.021 167.352 237.421 167.352H235.909C235.333 167.352 234.817 167.544 234.361 167.928C233.929 168.312 233.713 168.792 233.713 169.368V171.672C233.713 172.272 233.869 172.764 234.181 173.148C234.517 173.532 234.973 173.724 235.549 173.724H237.565C238.165 173.724 238.633 173.532 238.969 173.148C239.305 172.764 239.473 172.272 239.473 171.672ZM284.005 179.124C284.653 179.124 285.253 179.22 285.805 179.412C286.381 179.604 286.885 179.88 287.317 180.24C287.749 180.576 288.085 180.984 288.325 181.464C288.565 181.92 288.685 182.436 288.685 183.012V185.892C288.685 186.396 288.565 186.876 288.325 187.332C288.085 187.788 287.761 188.184 287.353 188.52C286.945 188.88 286.465 189.168 285.913 189.384C285.361 189.6 284.773 189.708 284.149 189.708H271.909C270.253 189.708 268.981 189.408 268.093 188.808C267.229 188.208 266.797 187.224 266.797 185.856V183.12C266.797 181.776 267.253 180.78 268.165 180.132C269.077 179.46 270.289 179.124 271.801 179.124H284.005ZM274.789 161.052C274.861 162.132 275.137 163.332 275.617 164.652C276.121 165.972 276.721 167.304 277.417 168.648C278.113 169.968 278.857 171.24 279.649 172.464C280.441 173.664 281.185 174.684 281.881 175.524H276.445C276.085 175.092 275.713 174.588 275.329 174.012C274.969 173.436 274.609 172.824 274.249 172.176C273.889 171.504 273.541 170.82 273.205 170.124C272.869 169.404 272.557 168.696 272.269 168C271.957 168.624 271.657 169.248 271.369 169.872C271.105 170.472 270.805 171.084 270.469 171.708C270.157 172.332 269.797 172.968 269.389 173.616C269.005 174.24 268.561 174.876 268.057 175.524H261.973C263.269 174.444 264.397 173.172 265.357 171.708C266.341 170.22 267.157 168.768 267.805 167.352C268.477 165.912 268.993 164.616 269.353 163.464C269.713 162.312 269.917 161.508 269.965 161.052H274.789ZM292.393 169.872H288.361V177.432H283.753V159.756H288.361V165.66H292.393V169.872ZM273.241 182.868C272.545 182.868 272.053 182.964 271.765 183.156C271.501 183.348 271.369 183.66 271.369 184.092V185.136C271.369 185.4 271.429 185.604 271.549 185.748C271.669 185.892 271.813 185.988 271.981 186.036C272.173 186.108 272.377 186.144 272.593 186.144C272.833 186.168 273.073 186.18 273.313 186.18H282.529C282.961 186.18 283.393 186.096 283.825 185.928C284.257 185.736 284.473 185.472 284.473 185.136V184.02C284.473 183.684 284.305 183.408 283.969 183.192C283.633 182.976 283.153 182.868 282.529 182.868H273.241ZM323.291 190.032H318.179V160.116H323.291V190.032ZM309.179 162.24H304.211V168.216C304.211 170.592 303.731 172.644 302.771 174.372C301.835 176.076 300.299 177.468 298.163 178.548V183.372C299.267 182.916 300.335 182.364 301.367 181.716C302.255 181.164 303.179 180.468 304.139 179.628C305.123 178.764 305.963 177.732 306.659 176.532C307.451 177.732 308.315 178.764 309.251 179.628C310.211 180.468 311.099 181.164 311.915 181.716C312.875 182.364 313.835 182.916 314.795 183.372V178.512C313.739 177.84 312.851 177.144 312.131 176.424C311.411 175.68 310.835 174.888 310.403 174.048C309.971 173.208 309.659 172.308 309.467 171.348C309.275 170.388 309.179 169.344 309.179 168.216V162.24ZM329.044 161.916H344.2V165.552C344.2 166.992 343.96 168.432 343.48 169.872C343 171.312 342.376 172.704 341.608 174.048C340.84 175.392 339.964 176.676 338.98 177.9C337.996 179.1 337 180.204 335.992 181.212C335.008 182.196 334.048 183.06 333.112 183.804C332.176 184.524 331.36 185.076 330.664 185.46V179.628C331.816 178.788 332.836 177.852 333.724 176.82C334.612 175.764 335.404 174.744 336.1 173.76H329.476V170.052H338.08C338.344 169.596 338.548 169.032 338.692 168.36C338.86 167.664 338.956 167.016 338.98 166.416H329.044V161.916ZM350.176 159.792H355.288V190.068H350.176V180.276H345.388V176.064H350.176V171.996H345.388V167.748H350.176V159.792ZM398.487 161.628V177.396H376.779V161.628H381.315V166.596H393.915V161.628H398.487ZM401.079 182.652V186.792H373.791V182.652H385.023V178.908H389.919V182.652H401.079ZM393.915 170.304H381.315V173.22H393.915V170.304ZM418.048 165.768C418.048 167.232 418.156 168.564 418.372 169.764C418.588 170.964 418.924 172.056 419.38 173.04C419.86 174.024 420.472 174.924 421.216 175.74C421.96 176.556 422.86 177.3 423.916 177.972V182.76C422.908 182.424 421.912 181.956 420.928 181.356C420.088 180.852 419.164 180.18 418.156 179.34C417.148 178.5 416.224 177.444 415.384 176.172C414.52 177.444 413.584 178.5 412.576 179.34C411.568 180.18 410.644 180.852 409.804 181.356C408.82 181.956 407.836 182.424 406.852 182.76V177.972C408.052 177.156 409.048 176.316 409.84 175.452C410.656 174.588 411.304 173.664 411.784 172.68C412.264 171.672 412.6 170.58 412.792 169.404C413.008 168.204 413.116 166.872 413.116 165.408V161.844H418.048V165.768ZM425.86 159.756H430.036V190.032H425.86V173.688H421.792V168.54H425.86V159.756ZM436.768 159.756V190.032H432.556V159.756H436.768ZM461.739 160.404C462.291 160.404 462.915 160.524 463.611 160.764C464.307 161.004 464.955 161.352 465.555 161.808C466.179 162.24 466.695 162.768 467.103 163.392C467.511 164.016 467.715 164.7 467.715 165.444V167.928C467.715 168.6 467.547 169.236 467.211 169.836C466.875 170.412 466.419 170.916 465.843 171.348C465.267 171.78 464.595 172.116 463.827 172.356C463.083 172.596 462.279 172.716 461.415 172.716H450.903C450.111 172.716 449.367 172.596 448.671 172.356C447.999 172.092 447.399 171.756 446.871 171.348C446.343 170.94 445.911 170.46 445.575 169.908C445.239 169.356 445.011 168.792 444.891 168.216V165.12C444.987 164.424 445.215 163.788 445.575 163.212C445.959 162.636 446.415 162.144 446.943 161.736C447.471 161.304 448.035 160.98 448.635 160.764C449.235 160.524 449.811 160.404 450.363 160.404H461.739ZM469.767 182.04V186.792H442.515V182.04H450.435V174.048H454.827V182.04H457.887V174.048H461.847V182.04H469.767ZM460.875 169.224C461.211 169.224 461.523 169.164 461.811 169.044C462.123 168.9 462.387 168.72 462.603 168.504C462.819 168.264 462.987 168 463.107 167.712C463.251 167.4 463.323 167.088 463.323 166.776C463.323 166.128 463.083 165.564 462.603 165.084C462.123 164.604 461.547 164.364 460.875 164.364H451.623C450.927 164.364 450.339 164.604 449.859 165.084C449.379 165.564 449.139 166.128 449.139 166.776C449.139 167.4 449.355 167.964 449.787 168.468C450.243 168.972 450.855 169.224 451.623 169.224H460.875ZM477.989 161.556H483.353V181.644H477.989V161.556ZM483.137 184.884V189.24H478.277V184.884H483.137Z" fill="black"/>
</svg>
