<svg width="51" height="36" viewBox="0 0 51 36" fill="none" xmlns="http://www.w3.org/2000/svg">
<path id="Vector" d="M3.78634 11.2769H26.0771V3.24056C26.0772 2.79739 26.2407 2.3642 26.5468 1.99575C26.853 1.62731 27.2881 1.34014 27.7972 1.17056C28.3063 1.00098 28.8664 0.956604 29.4068 1.04304C29.9473 1.12947 30.4437 1.34283 30.8334 1.65614L49.1842 16.4156C49.7066 16.8358 50 17.4058 50 18C50 18.5942 49.7066 19.1642 49.1842 19.5844L30.8334 34.3439C30.4437 34.6572 29.9473 34.8705 29.4068 34.957C28.8664 35.0434 28.3063 34.999 27.7972 34.8294C27.2881 34.6599 26.853 34.3727 26.5468 34.0042C26.2407 33.6358 26.0772 33.2026 26.0771 32.7594V24.7231H3.78634C3.04736 24.7231 2.33864 24.487 1.8161 24.0667C1.29356 23.6464 1 23.0764 1 22.4821V13.5179C1 12.9236 1.29356 12.3536 1.8161 11.9333C2.33864 11.513 3.04736 11.2769 3.78634 11.2769Z" fill="white" stroke="white" stroke-linecap="round" stroke-linejoin="round"/>
</svg>
