<svg width="55" height="54" viewBox="0 0 55 54" fill="none" xmlns="http://www.w3.org/2000/svg">
<path id="&#234;&#178;&#128;&#236;&#131;&#137; &#236;&#149;&#132;&#236;&#157;&#180;&#236;&#189;&#152;" d="M50.6437 53.4939L31.6649 34.8008C30.1587 35.9876 28.4265 36.9272 26.4684 37.6196C24.5103 38.3119 22.4266 38.6581 20.2175 38.6581C14.7448 38.6581 10.1135 36.7908 6.32382 33.0561C2.5341 29.3214 0.638239 24.7599 0.63623 19.3715C0.63623 13.9812 2.53209 9.41966 6.32382 5.68697C10.1156 1.95427 14.7468 0.086939 20.2175 0.0849609C25.6902 0.0849609 30.3214 1.9523 34.1111 5.68697C37.9008 9.42164 39.7967 13.9832 39.7987 19.3715C39.7987 21.5474 39.4472 23.5997 38.7443 25.5284C38.0414 27.457 37.0874 29.1632 35.8824 30.6468L54.8612 49.3399L50.6437 53.4939ZM20.2175 32.7238C23.9831 32.7238 27.1844 31.4251 29.8213 28.8279C32.4582 26.2306 33.7757 23.0785 33.7737 19.3715C33.7737 15.6626 32.4552 12.5095 29.8183 9.91221C27.1813 7.31495 23.9811 6.01731 20.2175 6.01929C16.4518 6.01929 13.2506 7.31792 10.6136 9.91518C7.97668 12.5124 6.65921 15.6646 6.66122 19.3715C6.66122 23.0805 7.97969 26.2336 10.6166 28.8308C13.2536 31.4281 16.4538 32.7257 20.2175 32.7238Z" fill="white"/>
</svg>
